<?xml version="1.0" encoding="UTF-8"?>
<svg width="892px" height="166px" viewBox="0 0 892 166" version="1.1" xmlns="http://www.w3.org/2000/svg" xmlns:xlink="http://www.w3.org/1999/xlink">
    <!-- Generator: Sketch 49.3 (51167) - http://www.bohemiancoding.com/sketch -->
    <title>Bermuda Digital Studio CI/Logo/BDS_Logo_blue</title>
    <desc>Created with Sketch.</desc>
    <defs></defs>
    <g id="Bermuda-Digital-Studio-CI/Logo/BDS_Logo_blue" stroke="none" stroke-width="1" fill="none" fill-rule="evenodd">
        <g id="bds_logo_blue" transform="translate(-1.000000, 0.000000)" fill="#3881A1">
            <g id="bildmarke" stroke-width="1" transform="translate(0.000000, 0.971831)">
                <path d="M71.6215824,155.706645 L48.2245846,132.455445 C48.1967405,132.400104 48.1768519,132.33488 48.1350857,132.291398 C43.2882238,127.476715 43.2882238,119.640009 48.1350857,114.821374 C49.6088341,113.358786 51.3630122,112.348809 53.2285668,111.77168 L50.8001637,103.207633 C47.5066047,104.180056 44.4019878,105.952951 41.80652,108.534221 C33.6402439,116.647633 33.4950568,129.731868 41.3252149,138.050833 L41.2615713,138.11408 L59.0042283,155.746174 C55.5376381,155.756056 51.8124955,155.767915 47.8288007,155.779774 L36.4365869,144.456574 C36.347088,144.36368 36.2754889,144.264856 36.1820122,144.171962 C24.7440546,132.80528 24.7440546,114.311445 36.1820122,102.944762 C43.9843263,95.1890918 55.1279321,92.7362918 65.0523641,95.5606682 L67.5185557,87.0183624 C54.5690612,83.3342212 40.0344421,86.5361035 29.8534465,96.6536565 C14.972765,111.443586 14.9329878,135.475492 29.7261592,150.318786 L29.7022929,150.342504 L34.9946604,155.601892 L23.1092082,155.601892 C15.1080078,147.267115 10.185569,135.987398 10.185569,123.557374 C10.185569,97.9067388 31.1123976,77.1103153 56.9238764,77.1103153 C82.7373441,77.1103153 103.662184,97.9067388 103.662184,123.557374 C103.662184,126.931209 103.288277,130.21808 102.598141,133.386362 L111.599741,133.386362 L111.599741,126.116904 L119.022182,126.116904 L119.022182,118.602362 L126.440645,118.602362 L126.440645,103.851962 L111.599741,103.851962 L111.599741,96.5923859 L119.022182,96.5923859 L119.022182,89.2181741 L133.863086,89.2181741 L133.863086,67.0915859 L111.599741,67.0915859 L111.599741,74.4677741 L96.7568474,74.4677741 L96.7568474,59.7173741 L81.9139543,59.7173741 L81.9139543,44.9669741 L59.6486203,44.9669741 L59.6486203,52.3411859 L37.3852751,52.3411859 L37.3852751,67.0915859 L22.4727717,67.0915859 L22.438961,7.91210353 L97.876578,7.91210353 C138.487195,8.35285647 171.275609,41.4962918 171.275609,81.9566212 C171.275609,122.689704 135.573509,155.633515 94.5850078,155.635492 C89.4119722,155.651304 82.0670969,155.673045 71.6215824,155.706645 M171.510295,0.00622117647 L22.438961,0.00622117647 C18.061471,0.00622117647 14.4835045,3.56189176 14.4835045,7.91210353 L14.8494555,87.5342212 C5.89360022,97.3730918 0.999005568,110.143068 0.999005568,123.877562 C0.999005568,138.629939 6.6493686,151.72208 17.3355356,161.740809 L19.7042728,163.958409 L171.510295,163.960386 C175.885796,163.960386 179.465752,160.402739 179.465752,156.054504 L179.465752,7.91210353 C179.465752,3.56189176 175.885796,0.00622117647 171.510295,0.00622117647" id="Fill-4"></path>
                <polygon id="Fill-1" points="81.9129599 44.9667765 96.755853 44.9667765 96.755853 30.2163765 81.9129599 30.2163765"></polygon>
                <polygon id="Fill-2" points="133.86408 111.225976 141.286521 111.225976 141.286521 103.853741 133.86408 103.853741"></polygon>
                <polygon id="Fill-3" points="111.600735 59.7171765 119.021187 59.7171765 119.021187 52.3449412 111.600735 52.3449412"></polygon>
            </g>
            <path d="M243.227145,38.4048941 L243.227145,57.1932235 L255.257784,57.1932235 C261.367575,57.1932235 266.33178,54.9163294 266.33178,49.1292235 L266.33178,46.376 C266.33178,40.6817882 261.176644,38.4048941 255.830577,38.4048941 L243.227145,38.4048941 Z M243.227145,12.7878588 L243.227145,27.3999059 L254.49406,27.3999059 C258.885472,27.3999059 263.181419,25.5973647 263.181419,20.7589647 L263.181419,19.8102588 C263.181419,14.6872471 258.885472,12.7878588 254.49406,12.7878588 L243.227145,12.7878588 Z M229.764524,1.78287059 L255.35325,1.78287059 C269.100279,1.78287059 277.694161,7.09364706 277.694161,18.6718118 L277.694161,20.9487059 C277.694161,26.8326588 274.161938,30.3408941 268.909348,32.3331765 C276.739506,34.1357176 280.844521,38.5017412 280.844521,45.9945412 L280.844521,50.0739765 C280.844521,62.504 270.245864,68.1982118 257.356036,68.1982118 L229.764524,68.1982118 L229.764524,1.78287059 Z" id="Fill-7"></path>
            <polygon id="Fill-9" points="290.76776 1.78227765 334.781324 1.78227765 334.781324 12.7872659 304.230382 12.7872659 304.230382 29.4884424 326.378373 29.4884424 326.378373 40.4934306 304.230382 40.4934306 304.230382 57.1926306 335.831444 57.1926306 335.831444 68.1995953 290.76776 68.1995953"></polygon>
            <path d="M358.740573,12.7880565 L358.740573,33.6615624 L371.723878,33.6615624 C377.1674,33.6615624 381.272415,31.3826918 381.272415,25.6924329 L381.272415,20.7591624 C381.272415,15.1617976 377.358331,12.7880565 371.723878,12.7880565 L358.740573,12.7880565 Z M369.625627,44.6665506 L358.740573,44.6665506 L358.740573,68.1984094 L345.277952,68.1984094 L345.277952,1.78306824 L374.494366,1.78306824 C386.904878,1.78306824 394.923979,7.47530353 394.923979,19.1463624 L394.923979,27.1135153 C394.923979,36.2230682 390.248159,41.4429271 382.990794,43.6249506 L397.694466,68.1984094 L383.181725,68.1984094 L369.625627,44.6665506 Z" id="Fill-11"></path>
            <polygon id="Fill-13" points="417.831716 26.4496188 417.831716 68.1986071 406.184927 68.1986071 406.184927 1.78326588 416.87905 1.78326588 440.554489 43.8129129 464.327382 1.78326588 475.11697 1.78326588 475.11697 68.1986071 463.468192 68.1986071 463.468192 26.5464659 446.664279 57.1936188 434.635629 57.1936188"></polygon>
            <path d="M543.94579,1.78227765 L543.94579,45.23696 C543.94579,60.7977129 536.78389,69.1483012 519.407184,69.1483012 L512.247273,69.1483012 C495.063487,69.1483012 488.092518,60.7977129 488.092518,45.23696 L488.092518,1.78227765 L501.648616,1.78227765 L501.648616,44.0985129 C501.648616,53.5875482 505.469224,58.0464659 514.063106,58.0464659 L517.59334,58.0464659 C526.378153,58.0464659 530.387703,53.5875482 530.387703,44.0985129 L530.387703,1.78227765 L543.94579,1.78227765 Z" id="Fill-15"></path>
            <path d="M570.383761,57.2855247 L584.608117,57.2855247 C594.729447,57.2855247 599.025394,52.5419953 599.025394,45.9010541 L599.025394,24.2685835 C599.025394,18.1039718 594.729447,12.7872659 584.608117,12.7872659 L570.383761,12.7872659 L570.383761,57.2855247 Z M556.92114,1.78227765 L586.421961,1.78227765 C604.373449,1.78227765 612.678946,9.75338353 612.678946,23.5076424 L612.678946,46.6619953 C612.678946,60.5131012 604.373449,68.1976188 586.421961,68.1976188 L556.92114,68.1976188 L556.92114,1.78227765 Z" id="Fill-17"></path>
            <path d="M638.071172,42.7709176 L656.114148,42.7709176 L647.142382,13.3590588 L638.071172,42.7709176 Z M678.266116,68.1982118 L663.944306,68.1982118 L659.552894,53.7759059 L634.632426,53.7759059 L630.241014,68.1982118 L616.016658,68.1982118 L638.834896,1.78287059 L655.638809,1.78287059 L678.266116,68.1982118 Z" id="Fill-19"></path>
            <path d="M238.740665,158.784405 L256.594699,158.784405 C269.100676,158.784405 274.351278,152.61584 274.351278,144.172358 L274.351278,120.262993 C274.351278,112.009252 269.100676,104.890005 256.594699,104.890005 L238.740665,104.890005 L238.740665,158.784405 Z M231.292369,98.6285459 L257.262957,98.6285459 C273.778485,98.6285459 282.083982,106.694522 282.083982,120.450758 L282.083982,143.98064 C282.083982,157.738852 273.778485,165.045864 257.262957,165.045864 L231.292369,165.045864 L231.292369,98.6285459 Z" id="Fill-21"></path>
            <polygon id="Fill-23" points="296.592944 165.046654 304.039252 165.046654 304.039252 98.6293365 296.592944 98.6293365"></polygon>
            <path d="M350.054806,159.448301 C354.255287,159.448301 358.169371,158.877101 361.319732,158.213007 L361.319732,138.100442 L344.897681,138.100442 L344.897681,131.835031 L369.054425,131.835031 L369.054425,162.579031 C367.429523,163.243125 362.083456,165.996348 350.054806,165.996348 L343.179302,165.996348 C327.141102,165.996348 318.54722,159.825807 318.54722,143.790701 L318.54722,120.830042 C318.54722,103.848207 330.100532,97.6796424 343.465699,97.6796424 L350.054806,97.6796424 C358.360302,97.6796424 364.374628,98.8180894 367.240581,99.8656188 L367.240581,106.504584 C363.517427,105.079548 357.78751,104.227689 349.861886,104.227689 L343.372222,104.227689 C336.019392,104.227689 326.186447,107.643031 326.186447,120.830042 L326.186447,143.790701 C326.186447,154.321336 331.914376,159.448301 343.179302,159.448301 L350.054806,159.448301 Z" id="Fill-25"></path>
            <polygon id="Fill-26" points="382.889759 165.046654 390.336067 165.046654 390.336067 98.6293365 382.889759 98.6293365"></polygon>
            <polygon id="Fill-27" points="400.361135 98.6293365 448.384249 98.6293365 448.384249 104.890795 428.143579 104.890795 428.143579 165.046654 420.697271 165.046654 420.697271 104.890795 400.361135 104.890795"></polygon>
            <path d="M460.600051,141.98816 L485.51853,141.98816 L473.010564,105.273242 L460.600051,141.98816 Z M501.081392,165.045666 L493.348688,165.045666 L487.618771,148.249619 L458.404345,148.249619 L452.769893,165.045666 L445.039178,165.045666 L468.714617,98.6303247 L477.49943,98.6303247 L501.081392,165.045666 Z" id="Fill-28"></path>
            <polygon id="Fill-29" points="510.432236 98.6293365 517.878543 98.6293365 517.878543 158.785195 551.29345 158.785195 551.29345 165.046654 510.432236 165.046654"></polygon>
            <path d="M586.995749,115.707228 C586.995749,125.196264 595.396711,126.144969 603.990593,127.85264 C612.485032,129.655181 620.792517,132.309581 620.792517,146.067793 L620.792517,147.208216 C620.792517,160.964452 611.816773,165.994569 598.549061,165.994569 L595.683107,165.994569 C589.477851,165.994569 582.506882,164.664405 578.11547,163.336216 L578.11547,156.695275 C581.363286,158.023464 589.000524,159.541393 595.492176,159.541393 L598.260675,159.541393 C607.904678,159.541393 613.34621,156.317769 613.34621,147.303087 L613.34621,146.16464 C613.34621,135.91664 604.943259,134.685299 596.542297,133.070522 C587.948415,131.267981 579.740372,128.991087 579.740372,115.896969 L579.740372,114.665628 C579.740372,102.899699 588.2368,97.67984 601.506502,97.67984 L603.513265,97.67984 C608.954798,97.67984 615.160054,98.3439341 617.833087,98.9151341 L617.833087,105.366334 C615.541916,104.797111 608.954798,104.134993 603.513265,104.134993 L601.411036,104.134993 C593.105539,104.134993 586.995749,106.407934 586.995749,114.568781 L586.995749,115.707228 Z" id="Fill-30"></path>
            <polygon id="Fill-31" points="626.13401 98.6293365 674.157123 98.6293365 674.157123 104.890795 653.916453 104.890795 653.916453 165.046654 646.470145 165.046654 646.470145 104.890795 626.13401 104.890795"></polygon>
            <path d="M734.585379,98.6293365 L734.585379,142.370607 C734.585379,158.212019 727.234537,165.99536 710.907951,165.99536 L706.325608,165.99536 C690.571816,165.99536 683.602836,158.212019 683.602836,142.370607 L683.602836,98.6293365 L691.049143,98.6293365 L691.049143,141.987172 C691.049143,153.849948 696.013348,159.729948 706.802936,159.729948 L710.335159,159.729948 C721.886482,159.729948 727.139072,153.849948 727.139072,141.896254 L727.139072,98.6293365 L734.585379,98.6293365 Z" id="Fill-32"></path>
            <path d="M758.067301,158.784405 L775.921335,158.784405 C788.427312,158.784405 793.677914,152.61584 793.677914,144.172358 L793.677914,120.262993 C793.677914,112.009252 788.427312,104.890005 775.921335,104.890005 L758.067301,104.890005 L758.067301,158.784405 Z M750.620994,98.6285459 L776.589593,98.6285459 C793.105121,98.6285459 801.412606,106.694522 801.412606,120.450758 L801.412606,143.98064 C801.412606,157.738852 793.105121,165.045864 776.589593,165.045864 L750.620994,165.045864 L750.620994,98.6285459 Z" id="Fill-33"></path>
            <polygon id="Fill-34" points="815.919183 165.046654 823.36549 165.046654 823.36549 98.6293365 815.919183 98.6293365"></polygon>
            <path d="M845.60835,144.265845 C845.60835,152.711304 851.240813,159.636856 863.651325,159.636856 L866.899141,159.636856 C879.405118,159.636856 884.753174,152.711304 884.753174,144.265845 L884.753174,119.409751 C884.753174,110.871398 879.405118,104.036762 866.899141,104.036762 L863.651325,104.036762 C851.240813,104.036762 845.60835,110.871398 845.60835,119.409751 L845.60835,144.265845 Z M837.873657,119.312904 C837.873657,105.84128 847.040332,97.6804329 862.887602,97.6804329 L867.567399,97.6804329 C883.416657,97.6804329 892.388423,105.84128 892.388423,119.409751 L892.388423,144.265845 C892.388423,157.927209 883.891996,165.995162 867.567399,165.995162 L862.887602,165.995162 C846.561016,165.995162 837.873657,157.927209 837.873657,144.265845 L837.873657,119.312904 Z" id="Fill-35"></path>
        </g>
    </g>
</svg>