<svg id="Ebene_1" data-name="Ebene 1" xmlns="http://www.w3.org/2000/svg" viewBox="0 0 764.59 181.24"><defs><style>.cls-1{fill:#8db91c;}.cls-2{fill:#006065;}</style></defs><title>communicode</title><path class="cls-1" d="M33.37,30.52q13.76,0,21.71,10.57l6.13-3.82a25.74,25.74,0,0,0-6.58-7.46,32,32,0,0,0-9.42-4.76,36.65,36.65,0,0,0-11.53-1.82,35.27,35.27,0,0,0-17.2,4.2A30.93,30.93,0,0,0,4.4,39.12,31.55,31.55,0,0,0,0,55.35,29.5,29.5,0,0,0,9.4,77.42q9.4,9.06,23.67,9.07A37,37,0,0,0,49.63,82.9,28.85,28.85,0,0,0,61.21,72.83l-6.13-4A26.43,26.43,0,0,1,33.43,79.35a26.74,26.74,0,0,1-13.07-3.2,23.54,23.54,0,0,1-9.17-9A24.5,24.5,0,0,1,7.85,54.77a23.06,23.06,0,0,1,7.27-17.18Q22.38,30.53,33.37,30.52Z"/><path class="cls-1" d="M98.57,23.23a29.79,29.79,0,0,0-23.1,10.11A31.25,31.25,0,0,0,67.16,55a31.33,31.33,0,0,0,8.78,22q8.78,9.42,22.63,9.43t22.57-9.43a31.33,31.33,0,0,0,8.78-22,31.3,31.3,0,0,0-8.31-21.73A29.78,29.78,0,0,0,98.57,23.23Zm20.34,44.12a22.38,22.38,0,0,1-8.55,8.71,24.29,24.29,0,0,1-23.64,0,22.38,22.38,0,0,1-8.55-8.71A24.54,24.54,0,0,1,75,55.19,23.84,23.84,0,0,1,82,37.93a22.83,22.83,0,0,1,33.15,0,23.79,23.79,0,0,1,7,17.26A24.54,24.54,0,0,1,118.91,67.35Z"/><path class="cls-1" d="M386.38,52.86q0,11.3-1.16,14.77A16.05,16.05,0,0,1,379,75.84,18.89,18.89,0,0,1,368,79a19.24,19.24,0,0,1-11.16-3.21A15.79,15.79,0,0,1,350.49,67q-1.11-3.87-1.1-14.16V24.77h-7.75v29q0,12.82,2.91,19.22a22,22,0,0,0,8.79,10q5.9,3.57,14.68,3.57t14.63-3.57a22.15,22.15,0,0,0,8.73-9.87q2.91-6.3,2.91-18.75V24.77h-7.91Z"/><path class="cls-1" d="M447.92,26.79q-5.9-3.57-14.68-3.56t-14.63,3.56a22.15,22.15,0,0,0-8.73,9.87Q407,43,407,55.41V84.94h7.91V56.85q0-11.28,1.16-14.77a16.05,16.05,0,0,1,6.23-8.21,18.88,18.88,0,0,1,11-3.12A19.24,19.24,0,0,1,444.43,34a15.79,15.79,0,0,1,6.34,8.74q1.11,3.87,1.1,14.16V84.94h7.75V56q0-12.83-2.91-19.21A22,22,0,0,0,447.92,26.79Z"/><path class="cls-1" d="M316.26,26.79q-5.89-3.57-14.68-3.56T287,26.79a22,22,0,0,0-7.78,8,21.9,21.9,0,0,0-7.81-8q-5.89-3.57-14.68-3.56t-14.63,3.56a22.15,22.15,0,0,0-7.79,8,21.79,21.79,0,0,0-7.8-8q-5.9-3.57-14.68-3.56t-14.63,3.56a22.15,22.15,0,0,0-7.79,8,21.79,21.79,0,0,0-7.8-8q-5.9-3.57-14.68-3.56t-14.63,3.56a22.23,22.23,0,0,0-8.74,9.87q-2.89,6.31-2.9,18.75V84.94h7.91V56.85q0-11.28,1.16-14.77a16,16,0,0,1,6.23-8.21,18.85,18.85,0,0,1,11-3.12A19.24,19.24,0,0,1,178.06,34a15.79,15.79,0,0,1,6.34,8.74q1.11,3.87,1.11,14.16V84.94h7.91V56.85q0-11.28,1.16-14.77a16,16,0,0,1,6.23-8.21,18.85,18.85,0,0,1,11-3.12A19.24,19.24,0,0,1,223,34a15.75,15.75,0,0,1,6.34,8.74q1.11,3.87,1.11,14.16V84.94h7.91V56.85q0-11.28,1.16-14.77a16,16,0,0,1,6.23-8.21,18.88,18.88,0,0,1,11-3.12A19.19,19.19,0,0,1,267.86,34a15.81,15.81,0,0,1,6.35,8.74q1.1,3.87,1.1,14.16V84.94h7.91V56.85q0-11.28,1.16-14.77a16.05,16.05,0,0,1,6.23-8.21,18.88,18.88,0,0,1,11-3.12A19.24,19.24,0,0,1,312.77,34a15.79,15.79,0,0,1,6.34,8.74q1.11,3.87,1.1,14.16V84.94H328V56q0-12.83-2.91-19.21A22,22,0,0,0,316.26,26.79Z"/><path class="cls-1" d="M477.16,0a6.11,6.11,0,0,0-4.47,1.88,6.22,6.22,0,0,0-1.87,4.53,6.14,6.14,0,0,0,1.87,4.48,6.3,6.3,0,0,0,9,0,6.1,6.1,0,0,0,1.87-4.48,6.18,6.18,0,0,0-1.87-4.53A6.15,6.15,0,0,0,477.16,0Z"/><rect class="cls-1" x="473.31" y="24.77" width="7.74" height="60.16"/><path class="cls-1" d="M525.11,30.52q13.75,0,21.71,10.57L553,37.27a25.92,25.92,0,0,0-6.59-7.46A32,32,0,0,0,537,25.05a36.65,36.65,0,0,0-11.53-1.82,35.27,35.27,0,0,0-17.2,4.2,30.93,30.93,0,0,0-12.08,11.69,31.55,31.55,0,0,0-4.4,16.23,29.5,29.5,0,0,0,9.4,22.07q9.41,9.06,23.67,9.07a37,37,0,0,0,16.56-3.59A28.94,28.94,0,0,0,553,72.83l-6.14-4a26.43,26.43,0,0,1-21.65,10.56,26.74,26.74,0,0,1-13.07-3.2,23.54,23.54,0,0,1-9.17-9,24.5,24.5,0,0,1-3.34-12.38,23.06,23.06,0,0,1,7.27-17.18Q514.12,30.53,525.11,30.52Z"/><path class="cls-1" d="M591.08,23.23A29.82,29.82,0,0,0,568,33.34,31.25,31.25,0,0,0,559.67,55a31.33,31.33,0,0,0,8.78,22q8.79,9.42,22.63,9.43t22.58-9.43a31.33,31.33,0,0,0,8.78-22,31.3,31.3,0,0,0-8.31-21.73A29.81,29.81,0,0,0,591.08,23.23Zm20.34,44.12a22.43,22.43,0,0,1-8.54,8.71,24.31,24.31,0,0,1-23.65,0,22.43,22.43,0,0,1-8.54-8.71,24.43,24.43,0,0,1-3.16-12.16,23.87,23.87,0,0,1,6.93-17.26,22.84,22.84,0,0,1,33.16,0,23.82,23.82,0,0,1,7,17.26A24.43,24.43,0,0,1,611.42,67.35Z"/><path class="cls-1" d="M749.49,73.51a23.35,23.35,0,0,1-7.39,4.24,25.63,25.63,0,0,1-8.94,1.6,21.34,21.34,0,0,1-16-6.7q-6.48-6.7-6.7-17.19h54.13q-.11-12.33-6.64-20.57-9.18-11.67-24.57-11.66-15,0-23.86,11.39a32.19,32.19,0,0,0-7,20.4,32.56,32.56,0,0,0,8.31,21.82q8.3,9.64,23,9.65a33.14,33.14,0,0,0,11.9-2,29.58,29.58,0,0,0,9.47-5.89A35.57,35.57,0,0,0,762.6,68.4L756.08,65A36.38,36.38,0,0,1,749.49,73.51ZM718.26,36.33a22.06,22.06,0,0,1,15.23-5.7,24,24,0,0,1,10.24,2.27,21.26,21.26,0,0,1,7.83,6,25.7,25.7,0,0,1,4.52,9.9H711.23Q713.62,40.48,718.26,36.33Z"/><path class="cls-1" d="M684.23,34.07c-.22-.26-.44-.52-.68-.78a31.43,31.43,0,0,0-46.14.05A31.25,31.25,0,0,0,629.1,55a31.33,31.33,0,0,0,8.78,22q8.77,9.42,22.63,9.43t22.57-9.43a31.33,31.33,0,0,0,8.78-22V1.55h-7.63Zm-3.38,33.28a22.38,22.38,0,0,1-8.55,8.71,24.29,24.29,0,0,1-23.64,0,22.38,22.38,0,0,1-8.55-8.71A24.54,24.54,0,0,1,637,55.19a23.84,23.84,0,0,1,6.94-17.26,22.83,22.83,0,0,1,33.15,0,23.79,23.79,0,0,1,7,17.26A24.43,24.43,0,0,1,680.85,67.35Z"/><path class="cls-2" d="M21,144.68a11.32,11.32,0,0,1,8.86,3.95,16.33,16.33,0,0,1,0,20.23A11.35,11.35,0,0,1,21,172.81a10.62,10.62,0,0,1-9.78-5.67v5H7.29V135.84h3.9v14.5A10.63,10.63,0,0,1,21,144.68Zm-7.23,21.65a8.15,8.15,0,0,0,6.5,3,8.06,8.06,0,0,0,6.47-3,12.7,12.7,0,0,0,0-15.21,8.13,8.13,0,0,0-6.47-3,8.2,8.2,0,0,0-6.53,3,12.68,12.68,0,0,0,0,15.21Z"/><path class="cls-2" d="M57,145.3h3.9v26.88H57v-4.31a9.23,9.23,0,0,1-3.61,3.56,10.38,10.38,0,0,1-5.23,1.38,9.69,9.69,0,0,1-7.25-2.91A10.31,10.31,0,0,1,38,162.41V145.3h3.9v16.59a7.68,7.68,0,0,0,1.88,5.35,6.18,6.18,0,0,0,4.83,2.08,8.83,8.83,0,0,0,5.85-2A6.15,6.15,0,0,0,57,162.41Z"/><path class="cls-2" d="M70.73,140.41a2.45,2.45,0,0,1-1.84-.78,2.5,2.5,0,0,1-.76-1.82,2.42,2.42,0,0,1,.76-1.79,2.56,2.56,0,0,1,3.64,0,2.45,2.45,0,0,1,.75,1.79,2.53,2.53,0,0,1-.75,1.82A2.44,2.44,0,0,1,70.73,140.41Zm-2,31.77V145.3h3.9v26.88Z"/><path class="cls-2" d="M80.51,172.18V135.84h3.9v36.34Z"/><path class="cls-2" d="M112.28,135.84h3.9v36.34h-3.9v-5a10.61,10.61,0,0,1-9.78,5.67,11.35,11.35,0,0,1-8.86-3.95,16.33,16.33,0,0,1,0-20.23,11.32,11.32,0,0,1,8.86-3.95,10.62,10.62,0,0,1,9.78,5.66ZM96.76,166.33a8.06,8.06,0,0,0,6.47,3,8.15,8.15,0,0,0,6.5-3,12.62,12.62,0,0,0,0-15.21,8.21,8.21,0,0,0-6.5-3,8.13,8.13,0,0,0-6.47,3,12.7,12.7,0,0,0,0,15.21Z"/><path class="cls-2" d="M126.37,140.41a2.49,2.49,0,0,1-1.85-.78,2.53,2.53,0,0,1-.75-1.82,2.45,2.45,0,0,1,.75-1.79,2.54,2.54,0,0,1,1.85-.76,2.46,2.46,0,0,1,1.79.76,2.42,2.42,0,0,1,.76,1.79,2.5,2.5,0,0,1-.76,1.82A2.4,2.4,0,0,1,126.37,140.41Zm-2,31.77V145.3h3.9v26.88Z"/><path class="cls-2" d="M148.94,144.68a9.69,9.69,0,0,1,7.25,2.91,10.29,10.29,0,0,1,2.84,7.49v17.1h-3.9V155.6a7.7,7.7,0,0,0-1.88-5.36,6.18,6.18,0,0,0-4.83-2.08,8.83,8.83,0,0,0-5.85,2.05,6.15,6.15,0,0,0-2.47,4.87v17.1h-3.9V145.3h3.9v4.32a9.12,9.12,0,0,1,3.61-3.57A10.47,10.47,0,0,1,148.94,144.68Z"/><path class="cls-2" d="M186.79,145.3h3.9v24a10.91,10.91,0,0,1-3.69,8.51,13.73,13.73,0,0,1-9.51,3.3,18.78,18.78,0,0,1-6.09-1,14.39,14.39,0,0,1-4.78-2.6l1.71-3.07a12,12,0,0,0,8.64,3.17c3.08,0,5.49-.72,7.22-2.18a7.56,7.56,0,0,0,2.6-6.14V165a10.84,10.84,0,0,1-9.77,5.25,11.85,11.85,0,0,1-8.89-3.59,13.84,13.84,0,0,1,0-18.38,11.87,11.87,0,0,1,8.89-3.56,10.84,10.84,0,0,1,9.77,5.25Zm-9,21.42a8.66,8.66,0,0,0,6.52-2.6,10.08,10.08,0,0,0,0-13.36,8.73,8.73,0,0,0-6.5-2.6,8.64,8.64,0,0,0-6.48,2.6,10.11,10.11,0,0,0,0,13.36A8.6,8.6,0,0,0,177.75,166.72Z"/><path class="cls-2" d="M233,135.84h3.9v36.34H233v-5a10.61,10.61,0,0,1-9.78,5.67,11.35,11.35,0,0,1-8.86-3.95,16.33,16.33,0,0,1,0-20.23,11.32,11.32,0,0,1,8.86-3.95,10.62,10.62,0,0,1,9.78,5.66Zm-15.52,30.49a8,8,0,0,0,6.47,3,8.15,8.15,0,0,0,6.5-3,12.62,12.62,0,0,0,0-15.21,8.21,8.21,0,0,0-6.5-3,8.11,8.11,0,0,0-6.47,3,12.7,12.7,0,0,0,0,15.21Z"/><path class="cls-2" d="M247.06,140.41a2.49,2.49,0,0,1-1.85-.78,2.53,2.53,0,0,1-.75-1.82,2.45,2.45,0,0,1,.75-1.79,2.54,2.54,0,0,1,1.85-.76,2.46,2.46,0,0,1,1.79.76,2.42,2.42,0,0,1,.76,1.79,2.5,2.5,0,0,1-.76,1.82A2.4,2.4,0,0,1,247.06,140.41Zm-2,31.77V145.3H249v26.88Z"/><path class="cls-2" d="M276.7,145.3h3.9v24a10.91,10.91,0,0,1-3.69,8.51,13.75,13.75,0,0,1-9.52,3.3,18.76,18.76,0,0,1-6.08-1,14.34,14.34,0,0,1-4.79-2.6l1.72-3.07a12,12,0,0,0,8.63,3.17c3.09,0,5.49-.72,7.23-2.18a7.59,7.59,0,0,0,2.6-6.14V165a10.86,10.86,0,0,1-9.78,5.25,11.87,11.87,0,0,1-8.89-3.59,13.87,13.87,0,0,1,0-18.38,11.88,11.88,0,0,1,8.89-3.56,10.86,10.86,0,0,1,9.78,5.25Zm-9.05,21.42a8.67,8.67,0,0,0,6.53-2.6,9.23,9.23,0,0,0,2.52-6.7,9.1,9.1,0,0,0-2.55-6.66,8.73,8.73,0,0,0-6.5-2.6,8.63,8.63,0,0,0-6.47,2.6,10.11,10.11,0,0,0,0,13.36A8.6,8.6,0,0,0,267.65,166.72Z"/><path class="cls-2" d="M290.79,140.41a2.49,2.49,0,0,1-1.85-.78,2.53,2.53,0,0,1-.75-1.82,2.45,2.45,0,0,1,.75-1.79,2.54,2.54,0,0,1,1.85-.76,2.46,2.46,0,0,1,1.79.76,2.42,2.42,0,0,1,.76,1.79,2.5,2.5,0,0,1-.76,1.82A2.4,2.4,0,0,1,290.79,140.41Zm-2,31.77V145.3h3.9v26.88Z"/><path class="cls-2" d="M312.37,168.23l1.92,2.86a7.82,7.82,0,0,1-5,1.72,6.21,6.21,0,0,1-4.7-1.93,6.8,6.8,0,0,1-1.85-4.94V148.78h-4.21V145.3h4.21v-7.38h3.9v7.38h6.6v3.48h-6.6v17.16a3.51,3.51,0,0,0,.86,2.42,2.65,2.65,0,0,0,2.05,1A3.58,3.58,0,0,0,312.37,168.23Z"/><path class="cls-2" d="M329.69,144.68q5.35,0,8.13,3a11.49,11.49,0,0,1,2.79,8.08v16.38h-3.9V168a9.41,9.41,0,0,1-4,3.56,12.37,12.37,0,0,1-5.44,1.28,10.54,10.54,0,0,1-7.07-2.34,7.77,7.77,0,0,1-2.76-6.24,7.94,7.94,0,0,1,3.07-6.45,11.52,11.52,0,0,1,7.49-2.5,28.8,28.8,0,0,1,8.74,1.51v-1a9.05,9.05,0,0,0-1.67-5.53q-1.67-2.27-5.61-2.27-3.07,0-7.86,2.45L320,147.28A21.72,21.72,0,0,1,329.69,144.68ZM323.11,168a7.78,7.78,0,0,0,4.81,1.43,10.77,10.77,0,0,0,5.48-1.49,6.69,6.69,0,0,0,3.31-4.13v-4.11a30.29,30.29,0,0,0-8.12-1.09,8.68,8.68,0,0,0-5.22,1.56,4.71,4.71,0,0,0-2.16,3.95A4.6,4.6,0,0,0,323.11,168Z"/><path class="cls-2" d="M348.56,172.18V135.84h3.9v36.34Z"/><path class="cls-2" d="M389.48,144.68a11.34,11.34,0,0,1,8.87,3.95,16.33,16.33,0,0,1,0,20.23,11.37,11.37,0,0,1-8.87,3.95,10.6,10.6,0,0,1-9.77-5.67v5h-3.9V135.84h3.9v14.5A10.61,10.61,0,0,1,389.48,144.68Zm-7.22,21.65a8.53,8.53,0,0,0,13,0,12.74,12.74,0,0,0,0-15.21,8.62,8.62,0,0,0-13,0,12.68,12.68,0,0,0,0,15.21Z"/><path class="cls-2" d="M411.84,150.55a9.21,9.21,0,0,1,4-4.29,12.63,12.63,0,0,1,6.44-1.58v3.48a11,11,0,0,0-7.48,2.52,8.16,8.16,0,0,0-2.92,6.48v15h-3.9V145.3h3.9Z"/><path class="cls-2" d="M428.53,140.41a2.46,2.46,0,0,1-1.84-.78,2.54,2.54,0,0,1-.76-1.82,2.46,2.46,0,0,1,.76-1.79,2.52,2.52,0,0,1,1.84-.76,2.58,2.58,0,0,1,2.55,2.55,2.53,2.53,0,0,1-.75,1.82A2.41,2.41,0,0,1,428.53,140.41Zm-2,31.77V145.3h3.9v26.88Z"/><path class="cls-2" d="M458.28,135.84h3.9v36.34h-3.9v-5a10.61,10.61,0,0,1-9.78,5.67,11.35,11.35,0,0,1-8.86-3.95,16.33,16.33,0,0,1,0-20.23,11.32,11.32,0,0,1,8.86-3.95,10.62,10.62,0,0,1,9.78,5.66Zm-15.52,30.49a8,8,0,0,0,6.47,3,8.15,8.15,0,0,0,6.5-3,12.62,12.62,0,0,0,0-15.21,8.21,8.21,0,0,0-6.5-3,8.11,8.11,0,0,0-6.47,3,12.7,12.7,0,0,0,0,15.21Z"/><path class="cls-2" d="M490.31,145.3h3.9v24a10.91,10.91,0,0,1-3.69,8.51,13.75,13.75,0,0,1-9.52,3.3,18.76,18.76,0,0,1-6.08-1,14.44,14.44,0,0,1-4.79-2.6l1.72-3.07a12,12,0,0,0,8.63,3.17c3.09,0,5.5-.72,7.23-2.18a7.59,7.59,0,0,0,2.6-6.14V165a10.86,10.86,0,0,1-9.78,5.25,11.87,11.87,0,0,1-8.89-3.59,13.87,13.87,0,0,1,0-18.38,11.88,11.88,0,0,1,8.89-3.56,10.86,10.86,0,0,1,9.78,5.25Zm-9.05,21.42a8.67,8.67,0,0,0,6.53-2.6,9.23,9.23,0,0,0,2.52-6.7,9.1,9.1,0,0,0-2.55-6.66,9.39,9.39,0,0,0-13,0,10.11,10.11,0,0,0,0,13.36A8.6,8.6,0,0,0,481.26,166.72Z"/><path class="cls-2" d="M513.55,169.32a13.29,13.29,0,0,0,4.81-.93A9.76,9.76,0,0,0,522,166.1l2.39,2.55a12,12,0,0,1-4.81,3,17.08,17.08,0,0,1-6,1.15,13.1,13.1,0,0,1-9.57-4,14.64,14.64,0,0,1-.16-20.07,12.55,12.55,0,0,1,9.36-4,11.33,11.33,0,0,1,9.39,4.21Q526,153.1,526,160.22H504a10.33,10.33,0,0,0,3,6.56A9,9,0,0,0,513.55,169.32Zm-.15-21.16a8.93,8.93,0,0,0-6.24,2.37,9.78,9.78,0,0,0-3.12,6.21h18.09a10.29,10.29,0,0,0-2.65-6.21A8,8,0,0,0,513.4,148.16Z"/><path class="cls-2" d="M540.85,172.81a17.24,17.24,0,0,1-11.13-4l2-2.86a15.42,15.42,0,0,0,9.1,3.38,7.35,7.35,0,0,0,4.29-1.14,3.57,3.57,0,0,0,1.64-3.07,3.33,3.33,0,0,0-.49-1.82,4,4,0,0,0-1.59-1.35,14.12,14.12,0,0,0-2-.88c-.61-.21-1.5-.49-2.68-.84-3.29-.93-5.62-2-7-3.09a5.62,5.62,0,0,1-2-4.55,7,7,0,0,1,2.66-5.75,10.39,10.39,0,0,1,6.76-2.15,17.4,17.4,0,0,1,9.62,3l-1.88,3a14.44,14.44,0,0,0-7.74-2.55,7,7,0,0,0-4,1,3.3,3.3,0,0,0-1.56,2.91,2.73,2.73,0,0,0,1.41,2.5,32.61,32.61,0,0,0,5.56,2.18c1.42.45,2.52.83,3.28,1.15a20.64,20.64,0,0,1,2.65,1.37,5.62,5.62,0,0,1,2.18,2.24,6.84,6.84,0,0,1,.68,3.15,7.18,7.18,0,0,1-2.78,5.87A10.92,10.92,0,0,1,540.85,172.81Z"/></svg>