<?xml version="1.0" encoding="UTF-8"?>
<!DOCTYPE svg PUBLIC "-//W3C//DTD SVG 1.1//EN" "http://www.w3.org/Graphics/SVG/1.1/DTD/svg11.dtd">
<svg version="1.1" xmlns="http://www.w3.org/2000/svg" xmlns:xlink="http://www.w3.org/1999/xlink" x="0" y="0" width="247" height="82" viewBox="0, 0, 247, 82">
  <g id="Layer_1">
    <path d="M124.51,47.399 C124.724,53.073 129.776,56.798 138.458,56.798 C145.29,56.798 151.908,53.589 151.908,47.514 C151.908,43.674 149.987,41.095 144.152,39.719 L135.47,37.713 C132.479,37.025 131.342,35.765 131.342,34.102 C131.342,31.753 133.976,29.804 138.031,29.804 C142.301,29.804 144.437,31.466 144.935,34.848 L150.913,34.848 C150.913,30.377 147.639,25.563 138.173,25.563 C129.562,25.563 124.937,29.689 124.937,34.618 C124.937,38.172 127.001,41.095 132.479,42.298 L138.956,43.731 C143.938,44.82 145.503,46.023 145.503,47.972 C145.503,49.749 143.938,52.271 138.173,52.271 C134.259,52.271 130.915,50.609 130.487,47.399 L124.51,47.399 z M192.976,47.17 C190.339,50.265 187.073,51.984 183.404,51.984 C177.616,51.984 173.489,48.259 172.687,43.158 L198.248,43.158 C198.248,32.612 191.83,25.563 182.602,25.563 C173.259,25.563 167.185,32.67 167.185,41.152 C167.185,49.118 172.859,56.798 183.462,56.798 C188.677,56.798 192.917,54.792 196.93,50.322 L192.976,47.17 z M172.687,38.917 C173.203,34.848 176.24,30.377 182.544,30.377 C187.875,30.377 191.886,33.988 192.403,38.917 L172.687,38.917 z M240.544,47.17 C237.908,50.265 234.641,51.984 230.973,51.984 C225.185,51.984 221.058,48.259 220.255,43.158 L245.817,43.158 C245.817,32.612 239.398,25.563 230.171,25.563 C220.83,25.563 214.753,32.67 214.753,41.152 C214.753,49.118 220.427,56.798 231.031,56.798 C236.246,56.798 240.487,54.792 244.5,50.322 L240.544,47.17 z M220.255,38.917 C220.772,34.848 223.809,30.377 230.114,30.377 C235.444,30.377 239.457,33.988 239.972,38.917 L220.255,38.917" fill="#000000"/>
    <path d="M124.51,47.399 C124.724,53.073 129.776,56.798 138.458,56.798 C145.29,56.798 151.908,53.589 151.908,47.514 C151.908,43.674 149.987,41.095 144.152,39.719 L135.47,37.713 C132.479,37.025 131.342,35.765 131.342,34.102 C131.342,31.753 133.976,29.804 138.031,29.804 C142.301,29.804 144.437,31.466 144.935,34.848 L150.913,34.848 C150.913,30.377 147.639,25.563 138.173,25.563 C129.562,25.563 124.937,29.689 124.937,34.618 C124.937,38.172 127.001,41.095 132.479,42.298 L138.956,43.731 C143.938,44.82 145.503,46.023 145.503,47.972 C145.503,49.749 143.938,52.271 138.173,52.271 C134.259,52.271 130.915,50.609 130.487,47.399 L124.51,47.399 z M192.976,47.17 C190.339,50.265 187.073,51.984 183.404,51.984 C177.616,51.984 173.489,48.259 172.687,43.158 L198.248,43.158 C198.248,32.612 191.83,25.563 182.602,25.563 C173.259,25.563 167.185,32.67 167.185,41.152 C167.185,49.118 172.859,56.798 183.462,56.798 C188.677,56.798 192.917,54.792 196.93,50.322 L192.976,47.17 z M172.687,38.917 C173.203,34.848 176.24,30.377 182.544,30.377 C187.875,30.377 191.886,33.988 192.403,38.917 L172.687,38.917 z M240.544,47.17 C237.908,50.265 234.641,51.984 230.973,51.984 C225.185,51.984 221.058,48.259 220.255,43.158 L245.817,43.158 C245.817,32.612 239.398,25.563 230.171,25.563 C220.83,25.563 214.753,32.67 214.753,41.152 C214.753,49.118 220.427,56.798 231.031,56.798 C236.246,56.798 240.487,54.792 244.5,50.322 L240.544,47.17 z M220.255,38.917 C220.772,34.848 223.809,30.377 230.114,30.377 C235.444,30.377 239.457,33.988 239.972,38.917 L220.255,38.917 z" fill-opacity="0" stroke="#000000" stroke-width="2.1"/>
    <path d="M40.819,82 C63.362,82 81.638,63.725 81.638,41.181 C81.638,18.638 63.362,0.361 40.819,0.361 C18.275,0.361 -0,18.638 -0,41.181 C-0,63.725 18.275,82 40.819,82" fill="#000000"/>
    <path d="M38.603,40.858 C38.603,48.591 44.51,56.976 55.032,56.976 C65.554,56.976 71.461,48.591 71.461,40.858 C71.461,33.127 65.554,24.741 55.032,24.741 C44.51,24.741 38.603,33.127 38.603,40.858 z M42.757,40.858 C42.757,33.455 48.711,28.437 55.032,28.437 C61.353,28.437 67.307,33.455 67.307,40.858 C67.307,48.262 61.353,53.279 55.032,53.279 C48.711,53.279 42.757,48.262 42.757,40.858" fill="#FFFFFE"/>
    <path d="M38.603,40.858 C38.603,48.591 44.51,56.976 55.032,56.976 C65.554,56.976 71.461,48.591 71.461,40.858 C71.461,33.127 65.554,24.741 55.032,24.741 C44.51,24.741 38.603,33.127 38.603,40.858 z M42.757,40.858 C42.757,33.455 48.711,28.437 55.032,28.437 C61.353,28.437 67.307,33.455 67.307,40.858 C67.307,48.262 61.353,53.279 55.032,53.279 C48.711,53.279 42.757,48.262 42.757,40.858 z" fill-opacity="0" stroke="#FFFFFE" stroke-width="2.8"/>
    <path d="M37.245,29.37 C34.758,27.069 30.721,25.387 26.603,25.387 C16.084,25.387 10.177,33.77 10.177,41.503 C10.177,49.234 16.084,57.62 26.603,57.62 C30.517,57.62 34.595,55.976 37.367,53.431 L34.88,50.593 C32.719,52.648 30.028,53.924 26.603,53.924 C20.283,53.924 14.331,48.782 14.331,41.503 C14.331,34.306 20.12,29.082 26.603,29.082 C29.58,29.082 32.393,30.274 34.595,32.29 L37.245,29.37" fill="#FFFFFE"/>
    <path d="M37.245,29.37 C34.758,27.069 30.721,25.387 26.603,25.387 C16.084,25.387 10.177,33.77 10.177,41.503 C10.177,49.234 16.084,57.62 26.603,57.62 C30.517,57.62 34.595,55.976 37.367,53.431 L34.88,50.593 C32.719,52.648 30.028,53.924 26.603,53.924 C20.283,53.924 14.331,48.782 14.331,41.503 C14.331,34.306 20.12,29.082 26.603,29.082 C29.58,29.082 32.393,30.274 34.595,32.29 L37.245,29.37 z" fill-opacity="0" stroke="#FFFFFE" stroke-width="2.8"/>
    <path d="M97.534,41.033 C97.534,21.24 83.574,4.714 64.963,0.746 C79.142,8.468 88.765,23.501 88.765,40.781 C88.765,58.684 78.433,74.168 63.411,81.615 C82.79,78.259 97.534,61.373 97.534,41.033" fill="#48AF56"/>
    <path d="M113.125,41.033 C113.125,21.24 99.164,4.714 80.554,0.746 C94.732,8.468 104.355,23.501 104.355,40.781 C104.355,58.684 94.023,74.168 79.001,81.615 C98.381,78.259 113.125,61.373 113.125,41.033" fill="#C8D633"/>
  </g>
</svg>
