<?xml version="1.0" encoding="utf-8"?>
<!-- Generator: Adobe Illustrator 23.0.1, SVG Export Plug-In . SVG Version: 6.00 Build 0)  -->
<svg version="1.1" id="Ebene_1" xmlns="http://www.w3.org/2000/svg" xmlns:xlink="http://www.w3.org/1999/xlink" x="0px" y="0px"
	 viewBox="0 0 297 145" style="enable-background:new 0 0 297 145;" xml:space="preserve">
<style type="text/css">
	.st0{fill:#009FE3;}
	.st1{fill:#006491;}
	.st2{fill:#629AB4;}
	.st3{fill:#878575;}
</style>
<g>
	<path class="st0" d="M81.85,16.23c0.94,0,1.7-0.76,1.7-1.7c0-0.94-0.76-1.7-1.7-1.7s-1.7,0.76-1.7,1.7
		C80.14,15.47,80.91,16.23,81.85,16.23L81.85,16.23z"/>
	<path class="st0" d="M92.05,28.14c1.88,0,3.4-1.52,3.4-3.4c0-1.88-1.52-3.4-3.4-3.4c-1.88,0-3.4,1.52-3.4,3.4
		C88.65,26.62,90.18,28.14,92.05,28.14L92.05,28.14z"/>
	<path class="st0" d="M102.26,26.44c0.94,0,1.7-0.76,1.7-1.7c0-0.94-0.76-1.7-1.7-1.7c-0.94,0-1.7,0.76-1.7,1.7
		C100.56,25.68,101.32,26.44,102.26,26.44L102.26,26.44z"/>
	<path class="st0" d="M112.47,38.35c1.88,0,3.4-1.52,3.4-3.4c0-1.88-1.52-3.4-3.4-3.4c-1.88,0-3.4,1.52-3.4,3.4
		C109.07,36.83,110.59,38.35,112.47,38.35L112.47,38.35z"/>
	<path class="st1" d="M20.59,80.38c2.54,0,4.59-2.06,4.59-4.59c0-2.54-2.06-4.59-4.59-4.59c-2.54,0-4.59,2.06-4.59,4.59
		C16,78.32,18.05,80.38,20.59,80.38L20.59,80.38z"/>
	<path class="st0" d="M102.26,68.98c1.88,0,3.4-1.52,3.4-3.4c0-1.88-1.52-3.4-3.4-3.4c-1.88,0-3.4,1.52-3.4,3.4
		C98.86,67.45,100.38,68.98,102.26,68.98L102.26,68.98z"/>
	<path class="st0" d="M122.68,46.86c0.94,0,1.7-0.76,1.7-1.7c0-0.94-0.76-1.7-1.7-1.7s-1.7,0.76-1.7,1.7
		C120.98,46.1,121.74,46.86,122.68,46.86L122.68,46.86z"/>
	<path class="st0" d="M132.89,67.28c0.94,0,1.7-0.76,1.7-1.7c0-0.94-0.76-1.7-1.7-1.7s-1.7,0.76-1.7,1.7
		C131.19,66.51,131.95,67.28,132.89,67.28L132.89,67.28z"/>
	<path class="st1" d="M71.64,28.14c1.88,0,3.4-1.52,3.4-3.4c0-1.88-1.52-3.4-3.4-3.4c-1.88,0-3.4,1.52-3.4,3.4
		C68.23,26.62,69.76,28.14,71.64,28.14L71.64,28.14z"/>
	<path class="st0" d="M102.26,38.35c1.88,0,3.4-1.52,3.4-3.4c0-1.88-1.52-3.4-3.4-3.4c-1.88,0-3.4,1.52-3.4,3.4
		C98.86,36.83,100.38,38.35,102.26,38.35L102.26,38.35z"/>
	<path class="st0" d="M112.47,48.56c1.88,0,3.4-1.52,3.4-3.4c0-1.88-1.52-3.4-3.4-3.4c-1.88,0-3.4,1.52-3.4,3.4
		C109.07,47.04,110.59,48.56,112.47,48.56L112.47,48.56z"/>
	<path class="st0" d="M112.47,89.4c1.88,0,3.4-1.52,3.4-3.4c0-1.88-1.52-3.4-3.4-3.4c-1.88,0-3.4,1.52-3.4,3.4
		C109.07,87.87,110.59,89.4,112.47,89.4L112.47,89.4z"/>
	<path class="st0" d="M102.26,77.49c0.94,0,1.7-0.76,1.7-1.7c0-0.94-0.76-1.7-1.7-1.7c-0.94,0-1.7,0.76-1.7,1.7
		C100.56,76.72,101.32,77.49,102.26,77.49L102.26,77.49z"/>
	<path class="st0" d="M10.38,78.17c1.32,0,2.38-1.07,2.38-2.38c0-1.31-1.07-2.38-2.38-2.38S8,74.47,8,75.78
		C8,77.1,9.07,78.17,10.38,78.17L10.38,78.17z"/>
	<path class="st0" d="M122.68,89.4c1.88,0,3.4-1.52,3.4-3.4c0-1.88-1.52-3.4-3.4-3.4c-1.88,0-3.4,1.52-3.4,3.4
		C119.28,87.87,120.8,89.4,122.68,89.4L122.68,89.4z"/>
	<path class="st0" d="M30.8,89.4c1.88,0,3.4-1.52,3.4-3.4c0-1.88-1.52-3.4-3.4-3.4c-1.88,0-3.4,1.52-3.4,3.4
		C27.4,87.87,28.92,89.4,30.8,89.4L30.8,89.4z"/>
	<path class="st0" d="M132.89,78.17c1.32,0,2.38-1.07,2.38-2.38c0-1.31-1.07-2.38-2.38-2.38c-1.32,0-2.38,1.07-2.38,2.38
		C130.51,77.1,131.58,78.17,132.89,78.17L132.89,78.17z"/>
	<path class="st0" d="M41.01,77.49c0.94,0,1.7-0.76,1.7-1.7c0-0.94-0.76-1.7-1.7-1.7c-0.94,0-1.7,0.76-1.7,1.7
		C39.31,76.72,40.07,77.49,41.01,77.49L41.01,77.49z"/>
	<path class="st0" d="M20.59,67.28c0.94,0,1.7-0.76,1.7-1.7c0-0.94-0.76-1.7-1.7-1.7c-0.94,0-1.7,0.76-1.7,1.7
		C18.89,66.51,19.65,67.28,20.59,67.28L20.59,67.28z"/>
	<path class="st0" d="M71.64,38.35c1.88,0,3.4-1.52,3.4-3.4c0-1.88-1.52-3.4-3.4-3.4c-1.88,0-3.4,1.52-3.4,3.4
		C68.23,36.83,69.76,38.35,71.64,38.35L71.64,38.35z"/>
	<path class="st0" d="M81.85,39.54c2.54,0,4.59-2.06,4.59-4.59c0-2.54-2.06-4.59-4.59-4.59c-2.54,0-4.59,2.06-4.59,4.59
		C77.25,37.48,79.31,39.54,81.85,39.54L81.85,39.54z"/>
	<path class="st0" d="M92.05,48.56c1.88,0,3.4-1.52,3.4-3.4c0-1.88-1.52-3.4-3.4-3.4c-1.88,0-3.4,1.52-3.4,3.4
		C88.65,47.04,90.18,48.56,92.05,48.56L92.05,48.56z"/>
	<path class="st0" d="M112.47,58.77c1.88,0,3.4-1.52,3.4-3.4c0-1.88-1.52-3.4-3.4-3.4c-1.88,0-3.4,1.52-3.4,3.4
		C109.07,57.25,110.59,58.77,112.47,58.77L112.47,58.77z"/>
	<path class="st0" d="M20.59,100.8c2.54,0,4.59-2.06,4.59-4.59c0-2.54-2.06-4.6-4.59-4.6c-2.54,0-4.59,2.06-4.59,4.6
		C16,98.74,18.05,100.8,20.59,100.8L20.59,100.8z"/>
	<path class="st0" d="M10.38,87.69c0.94,0,1.7-0.76,1.7-1.7c0-0.94-0.76-1.7-1.7-1.7c-0.94,0-1.7,0.76-1.7,1.7
		C8.68,86.93,9.44,87.69,10.38,87.69L10.38,87.69z"/>
	<path class="st0" d="M122.68,68.98c1.88,0,3.4-1.52,3.4-3.4c0-1.88-1.52-3.4-3.4-3.4c-1.88,0-3.4,1.52-3.4,3.4
		C119.28,67.45,120.8,68.98,122.68,68.98L122.68,68.98z"/>
	<path class="st0" d="M122.68,100.8c2.54,0,4.59-2.06,4.59-4.59c0-2.54-2.06-4.6-4.59-4.6s-4.59,2.06-4.59,4.6
		C118.09,98.74,120.15,100.8,122.68,100.8L122.68,100.8z"/>
	<path class="st0" d="M132.89,87.69c0.94,0,1.7-0.76,1.7-1.7c0-0.94-0.76-1.7-1.7-1.7s-1.7,0.76-1.7,1.7
		C131.19,86.93,131.95,87.69,132.89,87.69L132.89,87.69z"/>
	<path class="st0" d="M41.01,89.4c1.88,0,3.4-1.52,3.4-3.4c0-1.88-1.52-3.4-3.4-3.4c-1.88,0-3.4,1.52-3.4,3.4
		C37.61,87.87,39.13,89.4,41.01,89.4L41.01,89.4z"/>
	<path class="st0" d="M71.64,46.86c0.94,0,1.7-0.76,1.7-1.7c0-0.94-0.76-1.7-1.7-1.7c-0.94,0-1.7,0.76-1.7,1.7
		C69.94,46.1,70.7,46.86,71.64,46.86L71.64,46.86z"/>
	<path class="st0" d="M61.43,36.65c0.94,0,1.7-0.76,1.7-1.7c0-0.94-0.76-1.7-1.7-1.7c-0.94,0-1.7,0.76-1.7,1.7
		C59.73,35.89,60.49,36.65,61.43,36.65L61.43,36.65z"/>
	<path class="st1" d="M81.85,48.56c1.88,0,3.4-1.52,3.4-3.4c0-1.88-1.52-3.4-3.4-3.4c-1.88,0-3.4,1.52-3.4,3.4
		C78.44,47.04,79.97,48.56,81.85,48.56L81.85,48.56z"/>
	<path class="st0" d="M92.05,57.07c0.94,0,1.7-0.76,1.7-1.7c0-0.94-0.76-1.7-1.7-1.7s-1.7,0.76-1.7,1.7
		C90.35,56.31,91.12,57.07,92.05,57.07L92.05,57.07z"/>
	<path class="st0" d="M102.26,58.77c1.88,0,3.4-1.52,3.4-3.4c0-1.88-1.52-3.4-3.4-3.4c-1.88,0-3.4,1.52-3.4,3.4
		C98.86,57.25,100.38,58.77,102.26,58.77L102.26,58.77z"/>
	<path class="st0" d="M112.47,70.17c2.54,0,4.59-2.06,4.59-4.59c0-2.54-2.06-4.59-4.59-4.59c-2.54,0-4.59,2.06-4.59,4.59
		C107.88,68.11,109.94,70.17,112.47,70.17L112.47,70.17z"/>
	<path class="st1" d="M112.47,109.81c1.88,0,3.4-1.52,3.4-3.4c0-1.88-1.52-3.4-3.4-3.4c-1.88,0-3.4,1.52-3.4,3.4
		C109.07,108.29,110.59,109.81,112.47,109.81L112.47,109.81z"/>
	<path class="st0" d="M112.47,120.02c1.88,0,3.4-1.52,3.4-3.4c0-1.88-1.52-3.4-3.4-3.4c-1.88,0-3.4,1.52-3.4,3.4
		C109.07,118.5,110.59,120.02,112.47,120.02L112.47,120.02z"/>
	<path class="st0" d="M20.59,108.11c0.94,0,1.7-0.76,1.7-1.7c0-0.94-0.76-1.7-1.7-1.7c-0.94,0-1.7,0.76-1.7,1.7
		C18.89,107.35,19.65,108.11,20.59,108.11L20.59,108.11z"/>
	<path class="st0" d="M102.26,99.61c1.88,0,3.4-1.52,3.4-3.4c0-1.88-1.52-3.4-3.4-3.4c-1.88,0-3.4,1.52-3.4,3.4
		C98.86,98.08,100.38,99.61,102.26,99.61L102.26,99.61z"/>
	<path class="st1" d="M122.68,79.19c1.88,0,3.4-1.52,3.4-3.4c0-1.88-1.52-3.4-3.4-3.4c-1.88,0-3.4,1.52-3.4,3.4
		C119.28,77.66,120.8,79.19,122.68,79.19L122.68,79.19z"/>
	<path class="st0" d="M122.68,108.11c0.94,0,1.7-0.76,1.7-1.7c0-0.94-0.76-1.7-1.7-1.7s-1.7,0.76-1.7,1.7
		C120.98,107.35,121.74,108.11,122.68,108.11L122.68,108.11z"/>
	<path class="st0" d="M30.8,109.81c1.88,0,3.4-1.52,3.4-3.4c0-1.88-1.52-3.4-3.4-3.4c-1.88,0-3.4,1.52-3.4,3.4
		C27.4,108.29,28.92,109.81,30.8,109.81L30.8,109.81z"/>
	<path class="st0" d="M30.8,120.02c1.88,0,3.4-1.52,3.4-3.4c0-1.88-1.52-3.4-3.4-3.4c-1.88,0-3.4,1.52-3.4,3.4
		C27.4,118.5,28.92,120.02,30.8,120.02L30.8,120.02z"/>
	<path class="st0" d="M41.01,120.02c1.88,0,3.4-1.52,3.4-3.4c0-1.88-1.52-3.4-3.4-3.4c-1.88,0-3.4,1.52-3.4,3.4
		C37.61,118.5,39.13,120.02,41.01,120.02L41.01,120.02z"/>
	<path class="st0" d="M41.01,128.53c0.94,0,1.7-0.76,1.7-1.7c0-0.94-0.76-1.7-1.7-1.7c-0.94,0-1.7,0.76-1.7,1.7
		C39.31,127.77,40.07,128.53,41.01,128.53L41.01,128.53z"/>
	<path class="st0" d="M51.22,109.81c1.88,0,3.4-1.52,3.4-3.4c0-1.88-1.52-3.4-3.4-3.4c-1.88,0-3.4,1.52-3.4,3.4
		C47.82,108.29,49.34,109.81,51.22,109.81L51.22,109.81z"/>
	<path class="st2" d="M51.22,130.23c1.88,0,3.4-1.52,3.4-3.4c0-1.88-1.52-3.4-3.4-3.4c-1.88,0-3.4,1.52-3.4,3.4
		C47.82,128.71,49.34,130.23,51.22,130.23L51.22,130.23z"/>
	<path class="st1" d="M61.43,109.81c1.88,0,3.4-1.52,3.4-3.4c0-1.88-1.52-3.4-3.4-3.4c-1.88,0-3.4,1.52-3.4,3.4
		C58.02,108.29,59.55,109.81,61.43,109.81L61.43,109.81z"/>
	<path class="st0" d="M61.43,130.23c1.88,0,3.4-1.52,3.4-3.4c0-1.88-1.52-3.4-3.4-3.4c-1.88,0-3.4,1.52-3.4,3.4
		C58.02,128.71,59.55,130.23,61.43,130.23L61.43,130.23z"/>
	<path class="st0" d="M61.43,121.21c2.54,0,4.59-2.06,4.59-4.59c0-2.54-2.06-4.59-4.59-4.59c-2.54,0-4.59,2.06-4.59,4.59
		C56.83,119.16,58.89,121.21,61.43,121.21L61.43,121.21z"/>
	<path class="st0" d="M61.43,138.74c0.94,0,1.7-0.76,1.7-1.7s-0.76-1.7-1.7-1.7c-0.94,0-1.7,0.76-1.7,1.7S60.49,138.74,61.43,138.74
		L61.43,138.74z"/>
	<path class="st0" d="M71.64,108.11c0.94,0,1.7-0.76,1.7-1.7c0-0.94-0.76-1.7-1.7-1.7c-0.94,0-1.7,0.76-1.7,1.7
		C69.94,107.35,70.7,108.11,71.64,108.11L71.64,108.11z"/>
	<path class="st2" d="M71.64,120.02c1.88,0,3.4-1.52,3.4-3.4c0-1.88-1.52-3.4-3.4-3.4c-1.88,0-3.4,1.52-3.4,3.4
		C68.23,118.5,69.76,120.02,71.64,120.02L71.64,120.02z"/>
	<path class="st0" d="M71.64,130.23c1.88,0,3.4-1.52,3.4-3.4c0-1.88-1.52-3.4-3.4-3.4c-1.88,0-3.4,1.52-3.4,3.4
		C68.23,128.71,69.76,130.23,71.64,130.23L71.64,130.23z"/>
	<path class="st0" d="M71.64,139.42c1.32,0,2.38-1.07,2.38-2.38c0-1.32-1.07-2.38-2.38-2.38s-2.38,1.07-2.38,2.38
		C69.25,138.35,70.32,139.42,71.64,139.42L71.64,139.42z"/>
	<path class="st0" d="M81.85,109.81c1.88,0,3.4-1.52,3.4-3.4c0-1.88-1.52-3.4-3.4-3.4c-1.88,0-3.4,1.52-3.4,3.4
		C78.44,108.29,79.97,109.81,81.85,109.81L81.85,109.81z"/>
	<path class="st0" d="M81.85,138.74c0.94,0,1.7-0.76,1.7-1.7s-0.76-1.7-1.7-1.7s-1.7,0.76-1.7,1.7S80.91,138.74,81.85,138.74
		L81.85,138.74z"/>
	<path class="st0" d="M92.05,109.81c1.88,0,3.4-1.52,3.4-3.4c0-1.88-1.52-3.4-3.4-3.4c-1.88,0-3.4,1.52-3.4,3.4
		C88.65,108.29,90.18,109.81,92.05,109.81L92.05,109.81z"/>
	<path class="st0" d="M92.05,120.02c1.88,0,3.4-1.52,3.4-3.4c0-1.88-1.52-3.4-3.4-3.4c-1.88,0-3.4,1.52-3.4,3.4
		C88.65,118.5,90.18,120.02,92.05,120.02L92.05,120.02z"/>
	<path class="st0" d="M92.05,131.42c2.54,0,4.59-2.06,4.59-4.59s-2.06-4.59-4.59-4.59c-2.54,0-4.59,2.06-4.59,4.59
		S89.52,131.42,92.05,131.42L92.05,131.42z"/>
	<path class="st0" d="M102.26,109.81c1.88,0,3.4-1.52,3.4-3.4c0-1.88-1.52-3.4-3.4-3.4c-1.88,0-3.4,1.52-3.4,3.4
		C98.86,108.29,100.38,109.81,102.26,109.81L102.26,109.81z"/>
	<path class="st2" d="M102.26,120.02c1.88,0,3.4-1.52,3.4-3.4c0-1.88-1.52-3.4-3.4-3.4c-1.88,0-3.4,1.52-3.4,3.4
		C98.86,118.5,100.38,120.02,102.26,120.02L102.26,120.02z"/>
	<path class="st1" d="M102.26,128.53c0.94,0,1.7-0.76,1.7-1.7c0-0.94-0.76-1.7-1.7-1.7c-0.94,0-1.7,0.76-1.7,1.7
		C100.56,127.77,101.32,128.53,102.26,128.53L102.26,128.53z"/>
	<path class="st0" d="M41.01,100.8c2.54,0,4.59-2.06,4.59-4.6c0-2.54-2.06-4.59-4.59-4.59c-2.54,0-4.59,2.06-4.59,4.59
		C36.42,98.74,38.47,100.8,41.01,100.8L41.01,100.8z"/>
	<path class="st0" d="M51.22,97.9c0.94,0,1.7-0.76,1.7-1.7c0-0.94-0.76-1.7-1.7-1.7c-0.94,0-1.7,0.76-1.7,1.7
		C49.52,97.14,50.28,97.9,51.22,97.9L51.22,97.9z"/>
	<path class="st1" d="M92.05,97.9c0.94,0,1.7-0.76,1.7-1.7c0-0.94-0.76-1.7-1.7-1.7s-1.7,0.76-1.7,1.7
		C90.35,97.14,91.12,97.9,92.05,97.9L92.05,97.9z"/>
	<polygon class="st2" points="44.48,104.88 42.54,104.88 42.54,102.94 39.48,102.94 39.48,104.88 37.54,104.88 37.54,107.94 
		39.48,107.94 39.48,109.88 42.54,109.88 42.54,107.94 44.48,107.94 44.48,104.88 	"/>
	<polygon class="st2" points="78.31,23.37 79.68,24.74 78.31,26.11 80.47,28.28 81.85,26.9 83.22,28.28 85.38,26.11 84.01,24.74 
		85.38,23.37 83.22,21.2 81.85,22.57 80.47,21.2 78.31,23.37 	"/>
	<polygon class="st2" points="105.74,43.63 103.8,43.63 103.8,41.69 100.73,41.69 100.73,43.63 98.79,43.63 98.79,46.69 
		100.73,46.69 100.73,48.63 103.8,48.63 103.8,46.69 105.74,46.69 105.74,43.63 	"/>
	<polygon class="st2" points="115.94,94.67 114,94.67 114,92.73 110.94,92.73 110.94,94.67 109,94.67 109,97.73 110.94,97.73 
		110.94,99.67 114,99.67 114,97.73 115.94,97.73 115.94,94.67 	"/>
	<polygon class="st2" points="115.94,74.25 114,74.25 114,72.31 110.94,72.31 110.94,74.25 109,74.25 109,77.32 110.94,77.32 
		110.94,79.25 114,79.25 114,77.32 115.94,77.32 115.94,74.25 	"/>
	<polygon class="st1" points="78.31,115.25 79.68,116.62 78.31,117.99 80.47,120.16 81.85,118.79 83.22,120.16 85.38,117.99 
		84.01,116.62 85.38,115.25 83.22,113.08 81.85,114.45 80.47,113.08 78.31,115.25 	"/>
	<polygon class="st2" points="27.26,74.41 28.63,75.78 27.26,77.16 29.43,79.32 30.8,77.95 32.17,79.32 34.34,77.16 32.97,75.78 
		34.34,74.41 32.17,72.25 30.8,73.62 29.43,72.25 27.26,74.41 	"/>
	<polygon class="st1" points="92.05,31.54 88.44,35.16 92.05,38.77 95.67,35.16 92.05,31.54 	"/>
	<polygon class="st1" points="122.89,51.54 119.28,55.16 122.89,58.77 126.51,55.16 122.89,51.54 	"/>
	<polygon class="st1" points="102.05,82.17 98.44,85.78 102.05,89.4 105.67,85.78 102.05,82.17 	"/>
	<polygon class="st1" points="81.85,123.22 78.23,126.83 81.85,130.44 85.46,126.83 81.85,123.22 	"/>
	<polygon class="st1" points="51.22,112.8 47.61,116.41 51.22,120.02 54.83,116.41 51.22,112.8 	"/>
	<polygon class="st0" points="71.64,12 69.11,14.53 71.64,17.06 74.17,14.53 71.64,12 	"/>
	<polygon class="st1" points="30.8,92.59 27.19,96.2 30.8,99.81 34.41,96.2 30.8,92.59 	"/>
	<polygon class="st1" points="20.59,82.38 16.98,85.99 20.59,89.61 24.2,85.99 20.59,82.38 	"/>
	<polygon class="st3" points="289.93,61.98 286.37,61.98 278.61,84.11 269.06,60.46 259.5,84.11 251.75,61.98 248.18,61.98 
		259.5,93.04 269.06,69.27 278.61,93.04 289.93,61.98 	"/>
	<polygon class="st3" points="263.81,53.8 271.48,53.8 271.48,24.27 263.81,24.27 263.81,42.33 263.73,42.33 249.67,24.27 
		242,24.27 242,53.8 249.67,53.8 249.67,35.71 249.75,35.71 263.81,53.8 	"/>
	<path class="st3" d="M246.19,76.79c0-8.46-6.97-15.31-15.39-15.31c-8.42,0-15.39,6.85-15.39,15.31c0,8.5,6.97,15.23,15.39,15.23
		C239.22,92.02,246.19,85.28,246.19,76.79L246.19,76.79z M242.9,76.75c0,6.66-5.4,12.22-12.1,12.22c-6.7,0-12.1-5.56-12.1-12.22
		c0-6.7,5.33-12.22,12.1-12.22S242.9,70.05,242.9,76.75L242.9,76.75z"/>
	<polygon class="st3" points="220.46,53.8 237.26,53.8 237.26,47.3 228.13,47.3 228.13,42.21 236.79,42.21 236.79,35.71 
		228.13,35.71 228.13,30.77 237.26,30.77 237.26,24.27 220.46,24.27 220.46,53.8 	"/>
	<path class="st3" d="M217.05,33.98c0-6.78-4.39-9.71-10.73-9.71h-11.75V53.8h7.68v-9.79h4.35
		C213.29,44.01,217.05,40.96,217.05,33.98L217.05,33.98z M209.06,34.22c0,3.6-2.74,3.6-5.52,3.6h-1.29v-7.36h1.29
		C206.52,30.46,209.06,30.5,209.06,34.22L209.06,34.22z"/>
	<path class="st0" d="M191.01,38.49c0-8.93-7.83-15.19-16.33-15.19v7.44c4.58,0,8.34,3.72,8.34,7.79c0,5.09-3.76,8.81-8.34,8.81
		c-4.42,0-8.05-3.48-8.29-8.3h-8.01c0.26,9.26,7.01,15.74,16.3,15.74C184.16,54.78,191.01,48.04,191.01,38.49L191.01,38.49z"/>
	<polygon class="st3" points="163.6,61.98 160.31,61.98 160.31,91.51 163.6,91.51 163.6,78.78 164.42,77.96 176.52,91.51 
		181.06,91.51 166.73,75.73 180.59,61.98 176.17,61.98 163.6,74.63 163.6,61.98 	"/>
	<polygon class="st3" points="163.6,99.69 160.31,99.69 160.31,129.22 171.74,129.22 171.74,126.17 163.6,126.17 163.6,99.69 	"/>
	<polygon class="st3" points="190.3,99.69 174.99,99.69 174.99,129.22 190.3,129.22 190.3,126.17 178.28,126.17 178.28,114.58 
		189.95,114.58 189.95,111.52 178.28,111.52 178.28,102.75 190.3,102.75 190.3,99.69 	"/>
	<polygon class="st3" points="207.46,61.98 207.46,84.85 184.43,60.73 184.43,91.51 187.72,91.51 187.72,68.76 210.75,92.84 
		210.75,61.98 207.46,61.98 	"/>
	<path class="st3" d="M217.87,114.5c0-4.39-1.53-8.34-4.89-11.24c-3.48-2.98-7.09-3.56-11.51-3.56h-5.56v29.53h5.48
		c4.62,0,8.15-0.59,11.67-3.72C216.31,122.6,217.87,118.8,217.87,114.5L217.87,114.5z M214.58,114.46c0,3.29-1.25,6.38-3.68,8.65
		c-2.7,2.55-5.72,3.05-9.32,3.05h-2.39v-23.42h2.39c3.49,0,6.46,0.47,9.16,2.86C213.29,107.84,214.58,111.09,214.58,114.46
		L214.58,114.46z"/>
	<path class="st3" d="M220.73,114.54c0,8.3,6.89,15.19,15.19,15.19c4.11,0,8.22-1.8,10.93-4.93c2.7-3.13,3.13-6.42,3.06-10.42h-12.3
		v3.05h8.77c0,5.48-5.4,9.24-10.53,9.24c-3.09,0-6.23-1.6-8.38-3.76c-2.19-2.23-3.45-5.21-3.45-8.34c0-6.66,5.32-12.34,12.06-12.34
		c4.35,0,7.68,2.08,10.14,5.56l2.39-2.23c-3.13-4.07-7.32-6.38-12.49-6.38C227.62,99.18,220.73,106.08,220.73,114.54L220.73,114.54z
		"/>
	<polygon class="st3" points="269.88,99.69 254.57,99.69 254.57,129.22 269.88,129.22 269.88,126.17 257.86,126.17 257.86,114.58 
		269.53,114.58 269.53,111.52 257.86,111.52 257.86,102.75 269.88,102.75 269.88,99.69 	"/>
</g>
</svg>
