<svg id="Ebene_1" data-name="Ebene 1" xmlns="http://www.w3.org/2000/svg" viewBox="0 0 255.12 255.12"><title>cc_bildmarke</title><path d="M217.76,37.36a127.56,127.56,0,1,0-180.4,180.4,127.56,127.56,0,1,0,180.4-180.4Zm-9,116.78v.45h-7.56V129.94c0-5.84-.32-9.9-.94-12.07a13.22,13.22,0,0,0-5.29-7.29,16.22,16.22,0,0,0-9.36-2.69,15.87,15.87,0,0,0-9.22,2.61,13.4,13.4,0,0,0-5.2,6.85c-.65,1.95-1,6.18-1,12.58v24.65h-7.7V129.94c0-5.84-.32-9.9-.94-12.07a13.22,13.22,0,0,0-5.29-7.29,16.22,16.22,0,0,0-9.36-2.69,15.87,15.87,0,0,0-9.22,2.61,13.4,13.4,0,0,0-5.2,6.85c-.65,1.95-1,6.18-1,12.58v24.65h-7.7V129.94c0-5.84-.32-9.9-.94-12.07a13.22,13.22,0,0,0-5.29-7.29,16.22,16.22,0,0,0-9.36-2.69A15.87,15.87,0,0,0,99,110.51a13.4,13.4,0,0,0-5.2,6.85c-.65,1.95-1,6.18-1,12.58v24.65h-7.7V129.94c0-5.84-.32-9.9-.94-12.07a13.22,13.22,0,0,0-5.29-7.29,16.22,16.22,0,0,0-9.36-2.69,15.87,15.87,0,0,0-9.22,2.61,13.39,13.39,0,0,0-5.2,6.85c-.65,1.95-1,6.18-1,12.58v24.65h-7.7V128.7c0-7.18.86-12.67,2.54-16.34a19.63,19.63,0,0,1,7.7-8.7,24.32,24.32,0,0,1,12.83-3.14,24.58,24.58,0,0,1,12.88,3.14,19.29,19.29,0,0,1,6.5,6.43,19.48,19.48,0,0,1,6.48-6.43,24.32,24.32,0,0,1,12.83-3.14A24.58,24.58,0,0,1,121,103.67a19.29,19.29,0,0,1,6.5,6.43,19.48,19.48,0,0,1,6.48-6.43,24.32,24.32,0,0,1,12.83-3.14,24.58,24.58,0,0,1,12.88,3.14,19.29,19.29,0,0,1,6.5,6.43,19.48,19.48,0,0,1,6.48-6.43,24.32,24.32,0,0,1,12.83-3.14,24.58,24.58,0,0,1,12.88,3.14,19.47,19.47,0,0,1,7.75,8.77c1.69,3.71,2.54,9.34,2.54,16.74Z" style="fill:#8db91c"/></svg>