<?xml version="1.0" encoding="utf-8"?>
<!-- Generator: Adobe Illustrator 23.0.6, SVG Export Plug-In . SVG Version: 6.00 Build 0)  -->
<svg version="1.1" id="Ebene_1" xmlns="http://www.w3.org/2000/svg" xmlns:xlink="http://www.w3.org/1999/xlink" x="0px" y="0px"
	 viewBox="0 0 350 75" style="enable-background:new 0 0 350 75;" xml:space="preserve">
<style type="text/css">
	.Grün_x0020_bogenförmig{fill:url(#SVGID_1_);stroke:#FFFFFF;stroke-width:0.25;stroke-miterlimit:1;}
	.st0{fill:#108CBD;}
	.st1{fill:#3F4F58;}
	.st2{clip-path:url(#SVGID_3_);}
	.st3{clip-path:url(#SVGID_5_);fill-rule:evenodd;clip-rule:evenodd;fill:#77757A;}
	.st4{clip-path:url(#SVGID_5_);fill-rule:evenodd;clip-rule:evenodd;fill:#010202;}
	.st5{clip-path:url(#SVGID_5_);fill-rule:evenodd;clip-rule:evenodd;fill:#108CBD;}
	.st6{clip-path:url(#SVGID_5_);fill-rule:evenodd;clip-rule:evenodd;fill:#DE9357;}
	.st7{clip-path:url(#SVGID_5_);fill-rule:evenodd;clip-rule:evenodd;fill:#FFFFFF;}
	.st8{clip-path:url(#SVGID_5_);fill-rule:evenodd;clip-rule:evenodd;fill:#1E323B;}
	.st9{clip-path:url(#SVGID_5_);fill-rule:evenodd;clip-rule:evenodd;fill:#EBA43E;}
	.st10{clip-path:url(#SVGID_5_);fill-rule:evenodd;clip-rule:evenodd;fill:#CC5378;}
	.st11{clip-path:url(#SVGID_5_);fill-rule:evenodd;clip-rule:evenodd;fill:#984640;}
	.st12{clip-path:url(#SVGID_5_);fill-rule:evenodd;clip-rule:evenodd;fill:#EBA33E;}
	.st13{clip-path:url(#SVGID_5_);fill-rule:evenodd;clip-rule:evenodd;fill:#0A0702;}
	.st14{clip-path:url(#SVGID_5_);fill-rule:evenodd;clip-rule:evenodd;fill:#FEFEFE;}
	.st15{clip-path:url(#SVGID_5_);fill-rule:evenodd;clip-rule:evenodd;fill:#FCFCFD;}
	.st16{clip-path:url(#SVGID_5_);fill-rule:evenodd;clip-rule:evenodd;fill:#FCFCFC;}
	.st17{clip-path:url(#SVGID_5_);fill-rule:evenodd;clip-rule:evenodd;fill:#E9A23D;}
	.st18{clip-path:url(#SVGID_5_);fill-rule:evenodd;clip-rule:evenodd;fill:#E6A03D;}
	.st19{clip-path:url(#SVGID_5_);fill-rule:evenodd;clip-rule:evenodd;fill:#EEEEEF;}
	.st20{clip-path:url(#SVGID_5_);fill-rule:evenodd;clip-rule:evenodd;fill:#DD9256;}
	.st21{clip-path:url(#SVGID_5_);fill-rule:evenodd;clip-rule:evenodd;fill:#EAA33E;}
	.st22{fill:#0E8CBD;}
</style>
<linearGradient id="SVGID_1_" gradientUnits="userSpaceOnUse" x1="-67.75" y1="713.3887" x2="-67.0429" y2="712.6816">
	<stop  offset="0" style="stop-color:#1DA238"/>
	<stop  offset="0.9831" style="stop-color:#24391D"/>
</linearGradient>
<g>
	<path class="st0" d="M11.5,38.8c0-0.9,0.5-1.6,1.6-1.6H19c7.3,0,10.9,5.6,10.9,12.1c0,7.3-3.9,12.4-10.4,12.4h-6.4
		c-1.1,0-1.6-0.7-1.6-1.6V38.8z M14.5,59h4.3c5.7,0,7.8-4.8,7.8-9.8c0-5-2.3-9.5-8-9.5h-4.1V59z"/>
	<path class="st0" d="M34.9,53.6c0,3.1,2,5.6,5.4,5.6c4,0,5.1-2.5,6.2-2.5c0.5,0,1.1,0.5,1.1,1.3c0,1.5-3.7,3.7-7.3,3.7
		c-5.8,0-8.4-4.5-8.4-9.3c0-4.9,3.1-9.3,8.2-9.3c5,0,7.9,4.5,7.9,8.9c0,1.1-0.4,1.6-1.7,1.6H34.9z M44.9,51.4c0-2.6-1.5-5.6-4.8-5.6
		c-3.7-0.1-5.1,2.9-5.2,5.6H44.9z"/>
	<path class="st0" d="M49.3,45.8c-0.2-0.5-0.3-0.9-0.3-1.2c0-0.9,0.7-1.4,1.4-1.4c1,0,1.3,0.5,1.6,1.2l4.2,12.6h0.1l4.2-12.6
		c0.2-0.7,0.6-1.2,1.6-1.2c0.7,0,1.4,0.5,1.4,1.4c0,0.3-0.1,0.7-0.3,1.2l-5.3,14.7c-0.3,0.9-0.6,1.3-1.6,1.3c-1,0-1.3-0.4-1.6-1.3
		L49.3,45.8z"/>
	<path class="st0" d="M89.2,44.7c0-1,0.6-1.6,1.5-1.6c0.9,0,1.5,0.6,1.5,1.6v0.9h0.1c0.9-1.6,2.5-2.5,4.9-2.5c4.9,0,7.8,4.5,7.8,9.3
		s-2.9,9.3-7.8,9.3c-2.4,0-4.1-1.3-4.9-2.5h-0.1v8.1c0,1-0.6,1.6-1.5,1.6c-0.9,0-1.5-0.6-1.5-1.6V44.7z M96.9,59.2
		c3.7,0,5-3.6,5-6.7c0-3.1-1.3-6.7-5-6.7c-3.7,0-5,3.6-5,6.7C91.9,55.6,93.2,59.2,96.9,59.2z"/>
	<path class="st0" d="M114,43.1c2.5,0,6.1,1.3,6.1,3.2c0,0.7-0.4,1.2-1.4,1.2c-1.3,0-1.8-1.9-4.7-1.9c-1.7,0-3.2,0.8-3.2,2.3
		c0,3.2,9.8,2.9,9.8,8.1c0,3.8-3.3,5.6-6.7,5.6c-3.8,0-6.9-1.9-6.9-3.5c0-0.8,0.6-1.4,1.2-1.4c1.3,0,2.4,2.2,5.7,2.2
		c2.2,0,3.5-1.2,3.5-2.5c0-3.6-9.8-3.4-9.8-8.5C107.8,44.9,110.9,43.1,114,43.1z"/>
</g>
<g>
	<path class="st1" d="M148.5,50.8c-0.9,0-1.5-0.4-1.5-1.4c0-1,0.6-1.4,1.5-1.4h5.1c1.5,0,2.2,0.6,2.2,2.5c0,5.9-2.1,11.8-10.4,11.8
		c-7,0-10.7-6.1-10.7-12.4c0-6.4,3.5-12.4,11.2-12.4c5,0,8.4,2.6,8.4,3.9c0,0.8-0.6,1.4-1.4,1.4c-1.5,0-2.7-2.7-7.1-2.7
		c-5.5,0-7.7,5.2-7.7,9.8c0,4.7,2.2,9.8,7.9,9.8c4.7,0,7-4.1,7-7.4v-1.4H148.5z"/>
	<path class="st1" d="M173.6,60.7c0,1.1-0.8,1.5-1.4,1.5c-0.6,0-1.4-0.4-1.4-1.5v-1.3h-0.1c-1.3,1.9-3,2.7-5,2.7c-5.2,0-8-4.5-8-9.3
		s2.9-9.3,8-9.3c2.1,0,3.6,0.9,5,2.4h0.1v-1c0-1.1,0.8-1.5,1.4-1.5c0.6,0,1.4,0.4,1.4,1.5V60.7z M165.7,59.6c3.7,0,5-3.6,5-6.7
		c0-3.1-1.3-6.7-5-6.7c-3.7,0-5,3.6-5,6.7C160.7,56,162,59.6,165.7,59.6z"/>
	<path class="st1" d="M178.5,39.8c0-1,0.6-1.6,1.5-1.6s1.5,0.6,1.5,1.6v4h1.2c1,0,1.5,0.5,1.5,1.3s-0.5,1.3-1.5,1.3h-1.2v14.3
		c0,1-0.6,1.6-1.5,1.6s-1.5-0.6-1.5-1.6V46.3h-1.2c-1,0-1.5-0.5-1.5-1.3s0.5-1.3,1.5-1.3h1.2V39.8z"/>
	<path class="st1" d="M198,50.6c0-3.2-2.2-4.5-4.2-4.5c-2,0-4.2,1.3-4.2,4.5v10c0,1-0.6,1.6-1.5,1.6c-0.9,0-1.5-0.6-1.5-1.6V37.1
		c0-1,0.6-1.6,1.5-1.6c0.9,0,1.5,0.6,1.5,1.6v8.8l0.1,0.1c1.3-1.7,3.2-2.4,5.1-2.4c2.8,0,6.4,1.8,6.4,6.9v10.1c0,1-0.6,1.6-1.5,1.6
		c-0.9,0-1.5-0.6-1.5-1.6V50.6z"/>
	<path class="st1" d="M206.9,54c0,3.1,2,5.6,5.4,5.6c4,0,5.1-2.5,6.2-2.5c0.5,0,1.1,0.5,1.1,1.3c0,1.5-3.7,3.7-7.3,3.7
		c-5.8,0-8.4-4.5-8.4-9.3c0-4.9,3.1-9.3,8.2-9.3c5,0,7.9,4.5,7.9,8.9c0,1.1-0.4,1.6-1.7,1.6H206.9z M217,51.8c0-2.6-1.5-5.6-4.8-5.6
		c-3.7-0.1-5.1,2.9-5.2,5.6H217z"/>
	<path class="st1" d="M222.9,45.1c0-1,0.6-1.6,1.5-1.6c0.9,0,1.5,0.6,1.5,1.6v1.5h0.1c0.7-1.4,2.4-3.2,4.1-3.2
		c1.1,0,1.7,0.7,1.7,1.5c0,0.9-0.6,1.4-1.9,1.6c-1.8,0.3-4,1.6-4,5.2v8.7c0,1-0.6,1.6-1.5,1.6c-0.9,0-1.5-0.6-1.5-1.6V45.1z"/>
	<path class="st1" d="M235.2,37.3c1,0,1.9,0.8,1.9,1.9s-0.8,1.9-1.9,1.9c-1,0-1.9-0.8-1.9-1.9S234.2,37.3,235.2,37.3z M236.7,60.6
		c0,1-0.6,1.6-1.5,1.6c-0.9,0-1.5-0.6-1.5-1.6V45.1c0-1,0.6-1.6,1.5-1.6c0.9,0,1.5,0.6,1.5,1.6V60.6z"/>
	<path class="st1" d="M240.7,45.1c0-1,0.6-1.6,1.5-1.6c0.9,0,1.5,0.6,1.5,1.6v0.7l0.1,0.1c1.3-1.7,3.2-2.4,5.1-2.4
		c2.8,0,6.4,1.8,6.4,6.9v10.1c0,1-0.6,1.6-1.5,1.6c-0.9,0-1.5-0.6-1.5-1.6v-10c0-3.2-2.2-4.5-4.2-4.5c-2,0-4.2,1.3-4.2,4.5v10
		c0,1-0.6,1.6-1.5,1.6c-0.9,0-1.5-0.6-1.5-1.6V45.1z"/>
	<path class="st1" d="M274.2,60.7c0,5.4-3.3,8.7-8.2,8.7c-3.1,0-7-1.8-7-3.3c0-0.6,0.3-1.4,1.3-1.4c1.4,0,2.7,2.1,6,2.1
		c3.8,0,5-3,5-5.6v-1.6h-0.1c-0.9,1.6-2.6,2.6-4.6,2.6c-5.2,0-8-4.5-8-9.3s2.9-9.3,8-9.3c2,0,3.8,1.2,4.6,2.3h0.1V45
		c0-1.1,0.8-1.5,1.6-1.5c0.6,0,1.4,0.4,1.4,1.5V60.7z M266.5,59.6c3.7,0,5-3.6,5-6.7c0-3.1-1.3-6.7-5-6.7c-3.7,0-5,3.6-5,6.7
		C261.5,56,262.8,59.6,266.5,59.6z"/>
</g>
<g id="Dog_x5F_Original">
	<g>
		<defs>
			<rect id="SVGID_2_" x="291" y="6.4" width="45.6" height="62.6"/>
		</defs>
		<clipPath id="SVGID_3_">
			<use xlink:href="#SVGID_2_"  style="overflow:visible;"/>
		</clipPath>
		<g class="st2">
			<defs>
				<rect id="SVGID_4_" x="291" y="6.4" width="45.6" height="62.6"/>
			</defs>
			<clipPath id="SVGID_5_">
				<use xlink:href="#SVGID_4_"  style="overflow:visible;"/>
			</clipPath>
			<path class="st3" d="M336.6,32.4C336.6,32.4,336.6,32.4,336.6,32.4c0-0.1,0-0.2,0-0.3c0,0,0,0,0,0V32.4z"/>
			<path class="st4" d="M291,67.6c0.1-0.1,0-0.4,0.2-0.5c0.4-0.6,0.8-1.1,1.4-1.5c1.8-1.5,4-2.1,6.3-2.3c0.5-0.1,1,0,1.5-0.1
				c-0.1-0.1-0.1-0.1-0.1-0.1c-1.2-0.9-2.2-2-3.2-3.2c-0.7-1-1.4-2-1.9-3.1c-0.1-0.2-0.2-0.2-0.3-0.1c-0.3,0.1-0.6,0.1-0.9,0
				c-1.1-0.4-1.6-1.4-1.4-2.5c0.1-0.6,0.5-1.2,0.8-1.7c0-0.1,0.1-0.1,0.1-0.3c-0.1-0.4-0.2-0.9-0.3-1.4c0-0.1-0.1-0.2-0.1-0.3
				c-0.3-0.4-0.6-0.9-1-1.3c-0.1-0.1-0.2-0.2-0.2-0.4c-0.4-0.9-0.4-2.4,0.2-3.2c0.4-0.5,2-2.2,2.2-2.8c0.7-1.4,1.5-2.7,2.5-4
				c0.8-1,2.4-2.7,2.6-3c0.4-1.1,0-1.6-0.2-2c-0.1-0.2-0.1-0.2-0.2-0.2c-0.3,0-1.8-0.4-3-2.2c-0.6-0.9-1.1-1.7-1.4-2.7
				c-0.2-1-0.3-2.1,0.1-3.1c0.2-0.4,0.2-0.6-0.2-0.8c-0.2-0.1-0.7-1-0.7-1.4c0-0.5,0-0.9,0.1-1.4c0.1-0.5,0.2-1,0.2-1.5
				c0.1-1,0.2-2.1,0.6-3.1c0-0.1,0.4-0.9,0.6-1c0.1-0.1,0.2-0.2,0.4-0.2c0.8-0.4,1.7-0.5,2.5-0.7c0.7-0.1,1.3-0.3,2-0.2
				c0.1,0,0.2-0.1,0.2-0.1c0.8-0.9,1.6-1.8,2.6-2.5c0,0,0.1-0.1,0.1-0.1c-0.1-0.2-0.5-0.9-0.5-1c-0.2-0.3-0.2-0.8-0.4-1.1
				c-0.2-0.6-0.6-1.1-0.9-1.6c-0.2-0.3-0.3-0.3,0.1-0.7c0.3-0.3,0.7-0.5,1.1-0.7c1.4-0.7,8.4-1.3,8.6-1.2c0.4,0.1,0.8,0.1,1.2,0.1
				c0.2,0,0.3,0.1,0.5,0.1c0,0,0.1,0,0.1,0.1c0,0.1-0.6,3.8-0.7,4.3c0,0.1,0,0.1,0.1,0.1c0.1,0,1.8-0.3,2.7-0.6
				c0.1-0.1,0.2-0.1,0.4-0.2c0.2-0.1,0.3,0,0.4,0.1c0.2,0.2,0.3,1-0.2,1.3c0.2,0,0.4,0,0.6,0c0.2,0,0.4,0,0.5,0.2
				c0.1,0.2,0,0.4-0.1,0.5c-0.1,0.2-0.1,0.3,0,0.4c0.6,0.7,1.2,1.4,1.7,2.2c0.1,0.2,0.3,0.3,0.5,0.3c0.5,0.1,1.1,0.1,1.6,0.1
				c0.5,0,1.1,0,1.6,0c1,0,1.5,0.6,1.5,1.5c0.1,1.5-0.1,2.9-0.5,4.3c-0.1,0.3-0.2,0.6-0.3,0.8c0,0.1,0,0.2,0,0.3
				c0.7,1.6,0.9,3.3,0.7,5.1c-0.1,0.9-0.3,1.8-0.7,2.7c0,0.1-0.3,0.6-0.3,0.7c-1.1,0.9-1.7,1.7-2.5,2.9c0,0.1-0.1,0.1-0.1,0.2
				c0,0.5-0.2,1.1,0.1,1.6c0.4,0.7,0.8,1.5,1.3,2.2c0.9,1.2,1.8,2.4,2.6,3.7c0-0.6,0.1-1.2,0.3-1.7c0.4-1,1-1.8,1.7-2.6
				c1.2-1.5,2.8-2.7,4.5-3.8c0.9-0.6,1.9-1.1,3-1.5c0.6-0.2,1.2-0.3,1.8-0.3c0.3,0,0.6-0.1,0.9,0c0.3,0.1,0.6,0.2,0.6,0.6
				c0,0.1,0,0.2,0,0.3c0,0.4-0.2,0.7-0.5,1c-0.4,0.4-0.9,0.8-1.3,1.2c-0.5,0.4-0.9,0.9-1.3,1.4c-0.1,0.2-0.2,0.3-0.3,0.5
				c-0.1,0.2-0.1,0.2,0.1,0.3c0.8,0.2,1.1,0.9,0.7,1.6c-0.3,0.6-0.8,1-1.4,1.4c-0.4,0.3-0.9,0.6-1.3,1c-0.1,0.1-0.1,0.2-0.2,0.2
				c-0.1,0.2-0.1,0.3,0.1,0.4c0.3,0.2,0.4,0.4,0.4,0.8c0,0.4-0.2,0.8-0.4,1.1c-0.4,0.6-0.8,1.1-1.2,1.6c-0.4,0.5-0.7,1.1-1.3,1.6
				c0,0,0,0.1-0.1,0.1c-0.4,0.9-0.9,1.8-1.3,2.8c-0.3,0.8-0.5,1.7-0.5,2.6c0,0.6-0.1,1.1-0.3,1.6c-0.2,0.5-0.2,1-0.3,1.5
				c-0.4,1.9-1.1,3.8-2.1,5.5c-0.5,0.8-1.1,1.6-1.7,2.3c-0.2,0.2-0.2,0.2,0.1,0.3c0.9,0.3,1.7,0.8,2.3,1.6c0.5,0.7,0.7,2.1,0.5,2.9
				c-0.1,0.3-0.3,0.6-0.4,0.9c-0.1,0.2-0.3,0.3-0.5,0.3c-0.9,0-1.7,0-2.6,0c-0.9,0-1.8,0-2.6,0.1c-1.1,0-2.2,0.1-3.3,0.1
				c-0.6,0-0.7-0.2-0.8-0.8c0-0.5,0.1-1.6,0.2-2.1c0-0.3,0.3-0.5,0.4-0.7c-0.2,0-0.4,0.1-0.5,0.1c-1.1,0.4-5.9,0.8-6,0.4
				c0.1,0.4,0.1,0.7,0.1,1c0,0.3-0.1,0.6-0.4,0.8c-0.4,0.4-0.8,0.7-1.4,0.7c-0.6,0-1.3,0.2-1.9,0.2c-0.5,0.1-1.1,0.1-1.6,0.1
				c-1.7,0-3.4,0-5.1,0c-1.1,0-2.3,0.1-3.4,0.1c-1,0-1.9,0.1-2.9,0c-0.4,0-0.8-0.1-1.2-0.4c-0.1-0.1-0.2-0.1-0.2-0.2
				c0-0.2,0-0.3,0-0.5V67.6"/>
			<path class="st5" d="M301.5,42.9c0.1,1,0.5,1.9,1.4,2.4c0.8,0.4,1.6,0.3,2.3-0.1c1.2-0.7,2-1.7,2.3-3.1c0.1-0.6,0.1-1.2,0-1.7
				c0-0.1-0.1-0.2,0-0.2c0,0,0.1,0,0.2,0c1.6,0.4,8.8,2.1,9.3,2c0.1,0,2.5-2,3.2-2.6c0.2-0.2,1-0.5,1.1-0.6c0.2-0.1,0.2,0.1,0.3,0.2
				c0.7,0.9,1.4,1.9,2,3c0.9,1.4,1.6,3,2,4.7c0.1,0.7,0.4,1.3,0.4,2c0,1.1,0,2.1-0.3,3.2c-0.1,0.6-0.4,1.4-0.6,1.8
				c-1,1.5-3.7,3.6-5.5,4.8c-2.5,1.6-5.2,2.8-8.1,3.3c-1.4,0.3-2.8,0.3-4.2,0.2c-2.2,0-4.3-0.3-6.4-0.7c-0.4-0.1-0.7-0.2-1-0.3
				c-0.2-0.1-0.5-0.2-0.7-0.4c-1-0.8-1.6-1.8-2.3-2.9c-0.5-0.7-0.9-1.5-1.2-2.3c-0.2-0.4-0.4-0.7-0.6-1.1c-0.2-0.5-0.3-1.1-0.4-1.6
				c-0.2-0.7-0.1-1.4-0.4-2c-0.3-0.8-0.3-1.7-0.3-2.6c0.1-1.3,0.1-2.7,0.6-3.9c0.4-1.1,1-2.2,1.8-3.2c0.5,0.3,1,0.3,1.5,0.2
				c1.3-0.3,2.6-0.7,3.9-1.1c0.1,0,0.3-0.1,0.4-0.1C302,40.1,301.5,42,301.5,42.9"/>
			<path class="st6" d="M302.3,36.1c-0.5-0.4-1-0.7-1.6-0.9c-0.2-0.1-0.2-0.3-0.2-0.5c-0.1-0.3-0.2-0.7-0.4-1c0.4-0.1,0.7-0.2,1-0.3
				c0.1,0,0.5-0.3,0.7,0.2c0.2,0.4,0.4,0.9,0.9,1.2c0.6,0.3,1.2,0.3,1.6-0.2c0.2-0.2,0.3-0.5,0.2-0.8c0-0.3-0.1-0.5-0.1-0.8
				c0.5,0.1,0.9,0.3,1.4,0.4c2.2,0.4,5.4-4.3,4.9-7.2c-0.3-1.7-1.5-3-2.9-3.4c-0.1,0-0.2,0-0.3-0.1c-0.3-0.1-2.6-0.4-3.2-0.3
				c-0.7,0.1-1.3-0.1-2,0c-0.9,0-1.8,0-2.7,0.2c-0.3,0.1-0.6-0.1-0.9,0c-0.8,0.1-1.5,0.4-2.2,0.9c0,0-0.1,0-0.1,0.1
				c0.1-0.3,0.2-0.6,0.3-0.8c0.6-1.4,0.9-2,1.5-3.5c0.6-0.9,1.8-2.3,2.5-3.1c0.7-0.7,1.3-1.4,2.1-2.1c0,0,0,0,0,0
				c0.1-0.1,0.1-0.3,0.2-0.4c0.2,0,0.2,0.2,0.4,0.2c0.6,0.3,1.2,0.3,1.8,0.4c1.5,0.1,3-0.3,4.3-1.1c0.5-0.3,0.9-0.5,1.4-0.8
				c0.1-0.1,0.9-0.6,1.2-0.5c0.1,0,2.6-0.5,3-0.8c0.1-0.1,0.1,0,0.1,0.1c0,0.2,0,0.3-0.2,0.4c-0.2,0.1-0.3,0.2-0.4,0.4
				c-0.1,0.1-0.1,0.2,0.1,0.3c0.3,0.2,0.7,0.3,1.1,0.2c-0.1,0.2-0.2,0.3-0.2,0.5c0,0.2,0.1,0.3,0.3,0.2c0.1,0,0.1-0.1,0.2,0
				c0.6,0.8,1.1,1.6,1.6,2.5c0,0,0,0.1,0.1,0.2c-0.3,0.1-0.6,0-0.8,0.1c-0.2,0-0.4,0.1-0.6,0.1c-0.1,0-0.1,0.1-0.2,0.2
				c-0.2,0.3-0.2,0.6-0.3,0.9c-0.2,1.3-0.2,2.6-0.1,3.9c0,1.3,0,2.6,0.2,3.9c0.1,0.6,0.2,1.2,0.6,1.6c0.2,0.2,1.5,1,1.9,1.3
				c0.2,0.1,1.1,0.7,1.3,0.5c0.3-0.1,0.4-0.4,0.5-0.6c0.7-1.2,1.2-2.5,1.7-3.8c0-0.1,0.1-0.2,0.1-0.3c0.2,0.5,0.3,0.9,0.3,1.4
				c0.1,0.9,0.2,1.8,0.1,2.7c-0.1,1-0.4,2-0.8,3c-0.1,0.2-0.2,0.2-0.3,0.4c-0.3,0.5-0.7,0.9-1.1,1.3c-0.2,0.3-1,1.2-1,1.4
				c-0.1,0.2-0.2,0.3-0.4,0.3c-1.1,0.5-2.3,0.7-3.5,1.1c-1.2,0.4-2.3,0.8-3.5,1.2c-1.5,0.5-3,1.2-4.5,1.6c-0.8,0.3-1.8,0.7-2.7,0.1
				C304.3,37.5,302.6,36.3,302.3,36.1"/>
			<path class="st6" d="M309.6,27.9c-0.2,1.3-0.8,2.5-1.7,3.5c-0.2,0.2-0.5,0.5-0.7,0.7c-0.5,0.5-1.1,0.6-1.8,0.4
				c-0.4-0.1-0.8-0.3-1.2-0.4c-0.2-0.1-0.4-0.1-0.6-0.1c-0.2,0-0.4,0-0.6-0.1c-0.8-0.4-1.5-0.9-2-1.7c-0.5-0.8-0.9-1.5-1-2.4
				c0-0.3-0.3-1.3-0.2-1.4c0.1-0.1,0.4-0.1,0.5-0.2c0.6-0.4,0.9-1,1.3-1.6c0.4-0.6,1-1.1,1.6-1.5c0.1-0.1,0.2-0.1,0.3-0.1
				c0.8,0.1,1.7,0,2.5,0.1c2.4,0.4,2.7,1.3,3,1.7C309.5,25.5,309.7,26.7,309.6,27.9"/>
			<path class="st6" d="M326.5,49c-0.1-0.4-0.1-0.8-0.2-1.3c-0.1-0.2-0.3-1.4-0.3-1.6c-0.3-1.2-0.8-2.4-1.4-3.4
				c-0.2-0.3-0.1-0.7-0.1-1.1c0-1.3,0.7-2.3,1.4-3.3c1.8-2.4,4.2-4.1,6.9-5.4c0.8-0.4,1.7-0.6,2.6-0.8c0.1,0,0.2,0,0.2,0
				c0.1,0.1,0,0.2-0.1,0.2c-0.3,0.4-0.8,0.7-1.2,1.1c-0.6,0.5-1.2,1-1.7,1.7c-0.3,0.4-0.5,0.8-0.6,1.3c0,0.2,0,0.4,0.1,0.6
				c0,0,0,0,0,0.1c-0.1,0.5,0.2,0.4,0.5,0.4c0.1,0,0.2,0,0.3,0.1c0.1,0.1-0.1,0.2-0.1,0.3c-0.5,0.6-1.2,1-1.8,1.5
				c-0.4,0.3-0.8,0.6-1.1,1.1c-0.3,0.4-0.2,0.8,0,1.3c0.1,0.2,0.3,0.3,0.6,0.3c-0.2,0.4-0.4,0.8-0.7,1.1c-0.4,0.6-0.9,1.1-1.2,1.7
				c-0.3,0.6-0.7,1.2-1.1,1.8C327.3,47.4,326.8,48.2,326.5,49"/>
			<path class="st6" d="M300.6,62.2c0.3,0,0.5,0.1,0.8,0.2c2.8,1,5.7,1.1,8.6,0.9c2.8-0.2,5.5-1.1,8-2.3c2.1-1,4-2.4,5.6-4.1
				c0.2-0.2,0.5-0.4,0.7-0.7c0.1-0.2,0.8-0.8,0.9-1.1c0-0.1,0.1-0.3,0.2-0.4c-0.2,0.7-0.3,1.3-0.5,2c-0.4,1.2-0.9,2.3-1.5,3.3
				c-0.6,1.1-1.4,2-2.3,2.8c-0.1,0.1-0.2,0.1-0.2,0.1c-0.7,0-1.4,0.2-2.1,0.4c-0.8,0.3-1.4,0.7-2.1,1.1c-0.4,0.3-3.7,0.8-4.6,0.7
				c-0.7,0-1.3,0.1-1.9,0.2c-0.8,0-1.6,0-2.4-0.1c-1.3-0.2-2.6-0.4-3.7-1c-0.7-0.4-1.6-0.6-2.2-1.2C301.4,62.7,301,62.4,300.6,62.2"
				/>
			<path class="st6" d="M319.3,27.1c-0.4-0.4-1.4-1.2-1.9-1.6c-0.1-0.1-0.1-0.2-0.1-0.3c-0.3-1.8-0.3-3.6-0.3-5.4c0-1-0.2-3,0-3.1
				c0.4-0.2,1.5-0.3,1.9-0.4c0.4-0.1,2.5-0.1,3.2,0c0.5,0.1,0.4,1.4,0.4,1.6c0,0.8-0.2,1.5-0.2,2.3c0,0.6-0.3,1.1-0.5,1.6
				C321.3,23.8,319.6,27.4,319.3,27.1"/>
			<path class="st6" d="M292.8,68.1c0.5-0.6,1.5-2,2.2-2.1c0.1,0,0.2,0,0.1-0.1c0-0.1-0.1-0.2-0.3-0.2c-0.4,0-0.7,0.2-0.9,0.3
				c-0.7,0.5-1.3,1-1.9,1.7c0,0.1-0.1,0.2-0.2,0.1c-0.2,0-0.3-0.2-0.1-0.3c1.2-1.6,2.8-2.6,4.7-3.1c1.5-0.4,3.1-0.5,4.7-0.5
				c0.2,0,0.3,0.1,0.4,0.2c1.5,1,3.2,1.6,4.9,1.9c0.4,0.1,0.8,0.1,1.2,0.2c0.1,0,0.2,0.1,0.3,0.2c0.1,0.2,0.1,0.5,0,0.7
				c0,0.1-0.1,0.2-0.2,0.2c-0.4,0.2-0.7,0.4-1.1,0.6c-0.1,0.1-0.2,0-0.3,0c-2.1,0.1-4.1,0-6.2,0c-1.9,0-3.8,0.1-5.6,0.1
				C294,68.2,293.4,68.2,292.8,68.1"/>
			<path class="st6" d="M297.3,24.5c0.1,0.7,0.5,1.3,0.9,1.8c0.2,0.2,0.4,0.2,0.6,0.2c0.2,0,0.2,0,0.2,0.1c0.1,0.5-0.1,2.5,1.9,4.8
				c0.2,0.2,0.4,0.3,0.6,0.4c0.1,0.1,0.2,0.1,0,0.2c-0.8,0.5-1.7,0.9-2.7,0.9c-0.2,0-0.3-0.1-0.4-0.2c-0.6-0.4-1.2-0.8-1.6-1.5
				c-0.6-1-1.3-2-1.5-3.3c0-0.3-0.3-2.1,1-3.1c0.3-0.2,0.5-0.5,0.8-0.8c0.1,0,0.1,0.1,0.1,0.2C297.3,24.3,297.3,24.4,297.3,24.5"/>
			<path class="st5" d="M309.4,37.7c1.5-0.5,2.6-0.9,4-1.4c1.6-0.6,3.2-1.1,4.8-1.5c0.2-0.1,0.5,0,0.8,0c0.3,0.6,0.7,1.2,1,1.9
				c-0.7,0.3-2.9,1.7-3.1,1.9c-0.5,0.5-1,0.5-1.6,0.4c-1.1-0.3-2.3-0.5-3.4-0.8C311.3,38,309.6,37.8,309.4,37.7"/>
			<path class="st7" d="M312,7.1c0.1,0.4,0,1.7-0.8,2.1c-1.7,0.9-3.6,1.4-5.5,1.7c-0.1,0-0.2,0.1-0.4,0c0.3-0.5,0.4-1,0.4-1.7
				c-0.3,0.3-0.5,0.7-0.6,1c-0.2,0.4-0.5,0.7-0.9,0.9c0,0-0.1,0-0.1,0c-0.1,0-0.2-0.6-0.1-0.7c0.2-0.2,0.4-0.5,0.5-0.8
				c0.1-0.3,0-0.5-0.3-0.6c-0.2-0.1-0.4-0.1-0.6,0c-0.5,0.1-0.7,0.6-0.6,1.1c0,0.1,0.1,0.3,0.3,0.3c0.3,0,0.4,0.2,0.4,0.5
				c0,0.1,0,0.1,0,0.2c-0.3,0-0.7-0.3-0.8-0.5c-0.3-0.5-0.5-1-0.9-1.4c-0.2-0.2-0.1-0.3,0.1-0.4c0.6-0.2,1.2-0.3,1.9-0.3
				c1-0.1,2-0.3,3-0.4c1.1-0.2,2.3-0.3,3.4-0.5C310.8,7.5,311.7,7.2,312,7.1"/>
			<path class="st6" d="M322.5,68.1c0.2-0.8,0.3-2.2,0.1-2.9c0,0,0-0.1,0-0.1c-0.1-0.1-0.1-0.4-0.3-0.4c-0.2,0-0.2,0.2-0.2,0.4
				c0.1,1.4-0.1,2.3-0.5,3c0,0.1-0.1,0.1-0.1,0.1c-0.7,0.1-1.4,0.1-2.1,0.1c-0.2,0-0.2-0.1-0.3-0.2c-0.2-0.5-0.5-1.6-0.6-2.1
				c0-0.2,0.1-0.4,0.1-0.7c0.1-0.5-0.3-0.4-0.5-0.3c0,0-0.7,1.5,0.1,3.3c-0.3,0-0.5,0-0.7-0.1c-0.4,0-0.8-0.1-1.2-0.1
				c-0.2,0-0.5,0-0.5-0.2c-0.2-1.6,2.3-4.1,4.5-4c0.7,0,1.4-0.1,2,0.3c0.9,0.5,1.7,1,2,2c0.3,1.1-0.3,1.8-0.8,1.8
				C323.1,68,322.8,68,322.5,68.1"/>
			<path class="st8" d="M320.9,38.1c0,0-0.1,0.1-0.1,0.1c-0.7,0.6-3.1,2.6-3.5,3c-0.4,0.3-0.8,0.1-1.2,0c-2-0.5-3.9-1-5.9-1.5
				c-0.9-0.2-1.8-0.4-2.8-0.5c-0.1,0-0.2,0-0.3-0.1c-0.1-0.1-0.2-0.2-0.2-0.3c0-0.1,0.1-0.1,0.2-0.1c0.1,0,0.2-0.1,0.3-0.1
				c0.4-0.2,0.7-0.4,1.1-0.3c0.2,0.1,7.2,1.4,7.6,1.6c0.1,0,0.1,0,0.2-0.1c1.2-0.8,2.3-1.5,3.4-2.4c0.1-0.1,0.2-0.2,0.3-0.3
				c0.1-0.1,0.2-0.1,0.3,0c0.2,0.2,0.3,0.5,0.5,0.7C320.8,38,320.9,38,320.9,38.1"/>
			<path class="st6" d="M295.2,24.6c-0.2-0.4-0.5-0.7-0.7-1c-0.1-0.2-0.3-0.7-0.3-0.9c0-0.7,0.2-1.3,0.3-2c0.1-1,0.6-3.3,0.8-3.4
				c0.3-0.2,3.5-0.8,3.9-0.7c-0.1,0.1-1.1,1.5-1.6,1.9c-0.1,0.1-0.2,0.2-0.2,0.3c-0.7,1.7-1.3,3.5-1.8,5.3
				C295.5,24.3,295.4,24.4,295.2,24.6"/>
			<path class="st8" d="M304.1,38.1c0.1,0,0.1,0.2,0,0.3c-0.1,0.2-0.2,0.2-0.4,0.3c-1.1,0.4-2.3,0.7-3.4,1.1
				c-0.9,0.3-1.8,0.5-2.7,0.7c-0.4,0.1-0.9,0-1.1-0.1c-0.1-0.2,0.8-1.1,1.1-1.4C298.7,39,302.6,37.9,304.1,38.1"/>
			<path class="st9" d="M305.9,43.8c-0.4,0.5-0.9,0.8-1.6,0.9c-0.9,0.2-1.7-0.3-2-1.3c-0.2-0.5-0.2-1-0.1-1.5
				c0.1,0.3,0.3,0.4,0.5,0.4c0.2,0,0.4,0,0.6-0.1c0.1,0,0.1-0.1,0.1-0.1c0-0.1-0.1-0.1-0.2-0.1c-0.2,0-0.3,0-0.5,0
				c-0.2,0-0.3,0-0.3-0.2c0-0.2,0.2-0.2,0.3-0.2c0.3-0.1,0.6,0.1,0.9,0c-0.2-0.1-0.1-0.2-0.1-0.4c0.1-0.4,0.4-0.6,0.8-0.8
				c0.1,0.2,0,0.4,0,0.6c0.2-0.4,0.2-0.8,0.4-1.2c0.1,0.2,0,0.4-0.1,0.7c0,0.2-0.1,0.4,0,0.6c0.2-0.1,0.1-0.2,0.2-0.3
				c0.4,0.4,0.5,0.6,0.4,0.8c0.2,0.3,0.6-0.1,0.9,0.1c-0.2,0.2-0.4,0.2-0.6,0.2c-0.1,0-0.1,0-0.2,0c-0.1,0-0.2-0.1-0.2,0.1
				c0,0.1,0.1,0.1,0.2,0.1c0,0,0,0.1,0.1,0.1c0,0.4-0.4,1-0.8,1c0.1,0,0.3,0,0.4,0c0.2-0.1,0.3,0,0.4,0.1
				C305.4,43.6,305.7,43.6,305.9,43.8"/>
			<path class="st10" d="M303.2,11.9c0.4,0.2,1.1,0,1.3-0.1c0.3-0.2,0.6-0.1,0.9-0.1c2-0.2,3.8-0.6,5.6-1.5c0.1,0,0.6-0.3,0.7-0.3
				c0,0.3-0.1,0.5-0.1,0.7c0,0.1-0.6,0.4-0.7,0.4c-1.4,0.6-2.8,1.2-4.2,1.5c-0.9,0.2-2.1,0.3-3,0.2
				C303.5,12.7,303.2,12.1,303.2,11.9"/>
			<path class="st5" d="M303.2,37.5c-1.6,0.3-3.3,0.4-5,1c0,0,0,0,0-0.1c0.2-0.2,0.4-0.5,0.6-0.7c0.6-0.7,1.1-1.4,1.6-2.1
				c0.1-0.1,0.1-0.1,0.2-0.1C301.4,36.1,302.3,36.8,303.2,37.5C303.2,37.5,303.2,37.5,303.2,37.5"/>
			<path class="st9" d="M305.3,42.2c0,0,0-0.1,0-0.1c0.2,0,0.5,0,0.7-0.1c0.2-0.1,0.3-0.2,0.3-0.4c0-0.2-0.2-0.2-0.4-0.2
				c-0.1,0-0.2,0-0.3,0c-0.1,0-0.1-0.1-0.2-0.2c-0.1-0.1,0-0.1,0.1-0.2c0.2-0.1,0.4-0.3,0.5-0.5c0.1-0.1,0.2-0.3,0.1-0.5
				c-0.2-0.2-0.3-0.1-0.5,0c-0.2,0.1-0.4,0.2-0.5,0.4c0,0-0.1,0.2-0.2,0.1c-0.1-0.1-0.2-0.1-0.1-0.2c0.1-0.2,0-0.4,0-0.6
				c0-0.1,0-0.2-0.1-0.2c-0.1,0-0.2,0.1-0.2,0.1c-0.1,0.2-0.2,0.4-0.2,0.6c0,0,0,0.1-0.1,0.1c-0.2-0.1-0.3,0-0.5,0.1
				c-0.1,0-0.1-0.1-0.1-0.1c-0.1-0.2-0.3-0.5-0.5-0.6c0.1-0.1,0.3-0.1,0.4-0.2c1-0.4,1.9-0.2,2.8,0.2c0.1,0.1,0.2,0.2,0.3,0.3
				c0.4,0.8,0.4,1.7,0,2.6c-0.2,0.5-0.5,0.9-0.8,1.2c-0.1,0-0.1-0.1-0.1-0.2c0-0.2-0.1-0.5-0.2-0.6c-0.1-0.1-0.2-0.3-0.2-0.5
				C305.4,42.3,305.4,42.3,305.3,42.2"/>
			<path class="st5" d="M293.4,45c-0.1,0.5-0.1,0.9-0.2,1.3c0,0.2-0.3,2.1-0.2,2.4c0,0.2-0.1,0.3-0.3,0.2c-0.1,0-0.2-0.1-0.2-0.2
				c-0.2-0.5-0.4-1-0.4-1.6c0-0.7,0.5-1.1,0.9-1.6C293.1,45.3,293.3,45.2,293.4,45"/>
			<path class="st6" d="M293.7,53.3c0.3,0.9,0.6,1.8,1,2.6C293.5,55.7,293,54.8,293.7,53.3"/>
			<path class="st11" d="M303.4,32.5c0.2,0,0.6,0.3,0.6,0.4c0,0.3,0.1,0.8-0.1,1.1c-0.1,0.2-0.3,0.3-0.7,0.3c-0.4,0-0.5-0.3-0.5-0.3
				C302.6,32.9,303.3,32.5,303.4,32.5"/>
			<path class="st12" d="M302.2,41.7c0-0.6,0.3-1.3,0.7-1.7c0.1,0.2,0.1,0.5,0.3,0.7c0.3,0.2,0,0.5,0.1,0.8c0,0.1-0.1,0-0.1,0
				c-0.2,0-0.3,0-0.5,0C302.4,41.5,302.3,41.5,302.2,41.7"/>
			<path class="st13" d="M305.3,42.2c0.2-0.1,0.2,0.1,0.2,0.2c0,0.2,0.1,0.3,0.2,0.4c0.2,0.2,0.3,0.4,0.2,0.8c0,0,0,0.1,0,0.1
				l-0.1,0.1c-0.3-0.1-0.5-0.2-0.6-0.5c-0.1-0.1-0.2-0.1-0.3-0.1c-0.2,0.1-0.3,0.1-0.5,0c0.2-0.2,0.6-0.2,0.6-0.4
				C305.1,42.6,305.4,42.5,305.3,42.2"/>
			<path class="st14" d="M300.4,23.5c0.2,0,0.6,0.2,0.6,0.6c0,0.3,0,0.6-0.3,0.9c-0.1,0.1-0.2,0.1-0.3,0c-0.2-0.3-0.4-0.3-0.7-0.2
				c-0.1,0-0.2,0.2-0.3,0c-0.1-0.2-0.2-0.2,0-0.5C299.5,23.8,299.8,23.6,300.4,23.5"/>
			<path class="st15" d="M309.4,6.9c-0.7,0.1-3.2,0.5-3.9,0.6c-1,0.1-1.9,0.3-2.8,0.6c-0.3,0.1-0.6,0.3-0.8,0.5c0,0-0.1,0.2-0.2,0
				c-0.1-0.1,0-0.2,0.1-0.2c0.4-0.3,1-0.6,1.5-0.7c1.2-0.4,4.3-0.7,5.6-0.8C308.9,6.9,309.1,6.8,309.4,6.9"/>
			<path class="st16" d="M308.4,12.7c0,0.3-4.5,1.4-4.6,0.5c0.4-0.1,2.5-0.1,2.8-0.2C307.4,13,307.7,12.8,308.4,12.7
				C308.4,12.6,308.4,12.6,308.4,12.7"/>
			<path class="st17" d="M305.4,41c-0.1,0-0.1-0.1-0.1-0.1c0-0.1,0-0.1,0-0.1c0.2-0.2,0.4-0.3,0.7-0.5c0.1,0,0.1,0,0.1,0.1
				C306.1,40.4,305.5,41,305.4,41"/>
			<path class="st18" d="M303.1,39.9c0.3,0.2,0.4,0.4,0.5,0.6c0,0.1,0,0.1-0.1,0.1c-0.1,0.1-0.1,0-0.1,0
				C303.2,40.4,303.1,40.2,303.1,39.9"/>
			<path class="st19" d="M303.9,9.9c-0.1,0.1-0.3,0.2-0.4,0.1c0,0,0-0.1,0-0.1C303.6,9.7,303.7,9.9,303.9,9.9"/>
			<path class="st4" d="M318.8,44.6c0.2-0.1,0.3,0,0.5,0.1c0.7,0.5,1.2,1.4,0.8,2.4c-0.2,0.6-0.5,1.1-0.8,1.7
				c-0.1,0.2-0.2,0.4-0.2,0.7c0,0.3,0,0.3,0.3,0.2c0.1,0,0.2-0.1,0.3-0.1c0.4-0.2,0.8-0.2,1.2,0c0.2,0.1,0.3,0,0.4-0.2
				c0.5-1,0.9-2,1.4-3c0-0.1,0.1-0.1,0.1-0.2c0.5-0.5,0.4-1.1,0.1-1.7c-0.1-0.3-0.3-0.6-0.5-0.9c0-0.1-0.1-0.1-0.2-0.2
				c-0.4-0.4-0.5-1.3-0.3-1.7c0.1-0.1,0.1-0.2,0.3-0.2c0.1,0,0.2,0.1,0.3,0.2c0.1,0.3,0.3,0.6,0.4,0.9c0.1,0.2,0.2,0.3,0.3,0.4
				c0.5,0.6,0.7,1.3,1,1.9c0.2,0.5,0.1,0.9-0.3,1.3c-0.3,0.4-0.5,0.9-0.8,1.3c-0.3,0.5-0.7,1-0.8,1.6c-0.1,0.5-0.4,0.8-0.6,1.3
				c-0.1,0.3-0.1,0.7-0.2,1c-0.1,0.4,0.2,0.7,0.5,0.9c0.2,0.2,0.6,0.3,0.7,0.6c0.1,0.2,0.2,0.5,0.1,0.7c-0.2,0.8-0.6,1.5-1.4,1.9
				c-0.4,0.2-0.6,0.3-1.1,0.2c-0.8-0.1-2.4-1.9-2.6-2.7c-0.2-0.6-0.1-1.1-0.1-1.7c0.1-1.3,0.6-2.4,1-3.6c0.1-0.4,0.2-0.8,0.3-1.2
				c0-0.1,0-0.2,0-0.3c-0.2-0.3-0.2-0.5-0.2-0.8C319,45.1,318.9,44.9,318.8,44.6"/>
			<path class="st4" d="M303.8,20.6c0,0.2,0,0.3,0,0.5c-0.1-0.1-0.3,0-0.4-0.3c-0.1-0.9,0.3-1.6,0.8-2.3c0.6-0.9,1.7-1.3,2.5-1
				c0.6,0.2,1.3,0.7,1.6,1.2c0.4,0.9,0.2,3.3,0.1,3.4c-0.2-0.1-0.3-0.2-0.4-0.5c0.1-1.5,0-3.2-1.8-3.4
				C304.5,18,303.7,20.7,303.8,20.6"/>
			<path class="st4" d="M298.4,21.6c0,0.1-0.1,0.3-0.2,0.2c-0.1-0.1-0.2-0.3-0.1-1.1c0.4-2.4,3-3.5,3.7-2c0.3,0.5-0.4,2.7-0.7,2.6
				c-0.2-0.8,0.8-2.1-0.3-2.5c-2,0-2,1.3-2.4,2.2C298.4,21,298.4,21.3,298.4,21.6"/>
			<path class="st7" d="M303.7,20.6c0.2-0.9,1.1-2.3,1.9-2.4c0.9-0.2,1.6,0.1,1.9,0.7c0.3,0.5,0.4,1.8,0.4,2.6
				C308.1,21.4,304.1,23.7,303.7,20.6"/>
			<path class="st7" d="M298.4,21.2c-0.2-1.2,1.2-3.2,2.5-2.5c0.6,0.3,0.6,0.6,0.3,2.5C301,21.9,298.7,23.1,298.4,21.2"/>
			<path class="st4" d="M308.5,25.5c0,0.1-0.1,0.2-0.2,0.2c-0.1,0-0.3-0.1-0.2-0.3c0-0.1,0-0.3,0.2-0.2
				C308.5,25.2,308.4,25.4,308.5,25.5"/>
			<path class="st4" d="M307.6,26.7c0.1,0,0.1,0.1,0.1,0.2c0,0.1,0,0.3-0.2,0.3c-0.1,0-0.1-0.1-0.1-0.2
				C307.4,26.8,307.4,26.7,307.6,26.7"/>
			<path class="st4" d="M308.4,28.7c-0.1,0-0.2-0.1-0.2-0.2c0-0.1,0.1-0.2,0.2-0.2c0.1,0,0.2,0.1,0.2,0.2
				C308.6,28.6,308.5,28.6,308.4,28.7"/>
			<path class="st13" d="M303.8,44.1c0.2-0.2,0.2-0.4,0.2-0.7c0-0.2,0-0.3,0-0.5c0,0,0-0.1,0.1-0.1c0.1,0,0.1,0,0.1,0.1
				c0,0.4,0,0.8-0.2,1.2c-0.1,0.1-0.1,0.1-0.2,0.1c-0.1,0-0.1-0.1-0.1-0.2c0-0.2,0-0.4,0.1-0.6c0-0.1,0-0.2-0.1-0.2
				c-0.1-0.1-0.2,0-0.2,0.1c-0.1,0.2-0.2,0.3-0.4,0.4c-0.1,0.1-0.2,0.2-0.3,0.1c-0.1-0.1-0.1-0.2-0.1-0.4c0-0.2,0.1-0.3,0.3-0.5
				c0.1-0.2,0.4-0.3,0.2-0.6c0.3,0.2,0.3,0.7,0.8,0.6C303.9,43.3,303.7,43.7,303.8,44.1"/>
			<path class="st13" d="M304.2,42.5c-0.3,0-0.6-0.2-0.6-0.5c0-0.3,0.3-0.6,0.6-0.6c0.5,0,0.6,0.1,0.6,0.4
				C304.8,42.2,304.5,42.5,304.2,42.5"/>
			<path class="st18" d="M305.8,43.6c-0.2-0.2-0.3-0.3-0.5-0.5c-0.1-0.1,0-0.1,0-0.2c0-0.1,0.1,0,0.1,0
				C305.6,43.1,305.8,43.3,305.8,43.6"/>
			<path class="st6" d="M321,53.3c-0.1,0-0.3,0-0.4,0c-0.1,0-0.4-0.3-0.3-0.5c0.1-0.2,0.3-0.6,0.6-0.7c0.1,0,0.1,0,0.1-0.1
				c0-0.1-0.2-0.1-0.2-0.1c-0.2,0-0.9-0.1-0.8-0.2c0.2-0.1,0.5-0.1,0.7-0.2c0.2,0,0.2-0.2,0.1-0.3c-0.1-0.1-0.1-0.2-0.1-0.3
				c0-0.1,0.1-0.3-0.1-0.4c-0.3-0.2-1-0.2-1.3,0.1c-0.4,0.4-0.7,0.8-0.8,1.4c-0.1,0.4,0,0.7,0.2,1.1c0.3,0.6,0.8,1.1,1.4,1.5
				c0.2,0.2,0.5,0.4,0.8,0.4c0.3-0.1,0.6-0.2,0.9-0.4c0.4-0.4,0.6-1,0.6-1.6c0-0.1,0-0.1-0.1-0.2c0,0-0.3-0.2-0.4-0.2
				C321.6,52.7,321.2,53.2,321,53.3"/>
			<path class="st20" d="M320.8,53c-0.2,0-0.2-0.1-0.3-0.2c0-0.1,0.3-0.7,0.8-0.5c0.2,0.1,0.1,0.3,0,0.4C321.2,52.8,321,53,320.8,53
				"/>
			<path class="st18" d="M302.7,43.7c0-0.3,0.2-0.6,0.4-0.8c0,0,0.1-0.1,0.1,0c0,0.1,0.1,0.1,0,0.2C303.1,43.3,303,43.5,302.7,43.7"
				/>
			<path class="st21" d="M304.3,41.6c0.1,0,0.3,0,0.3,0.2c0,0.2-0.2,0.4-0.4,0.4c-0.1,0-0.3-0.1-0.3-0.3
				C303.9,41.7,304.1,41.5,304.3,41.6"/>
			<path class="st4" d="M321.8,53.3c-0.1-0.2-0.3-0.3-0.5-0.2c-0.1,0-0.1,0.1-0.2,0.2c-0.1,0.1,0,0.2,0.1,0.3c0.1,0.1,0.3,0.1,0.4,0
				C321.7,53.5,321.8,53.4,321.8,53.3 M321.4,53.5c0,0-0.1,0-0.2-0.1c-0.1-0.1,0-0.1,0-0.2c0,0,0.1-0.1,0.1-0.1
				c0.1-0.1,0.3-0.1,0.3,0.1C321.7,53.4,321.5,53.5,321.4,53.5"/>
			<path class="st4" d="M322.5,53c-0.1-0.3-0.4-0.4-0.6-0.2c-0.1,0-0.2,0.1-0.2,0.2c-0.1,0.2,0,0.3,0.1,0.4c0.1,0.1,0.4,0.1,0.5,0
				C322.4,53.3,322.5,53.2,322.5,53 M322,53.3c-0.1,0-0.2,0-0.2-0.1c-0.1-0.1,0-0.2,0-0.2c0,0,0.1-0.1,0.1-0.1
				c0.1-0.1,0.3-0.1,0.4,0.1C322.4,53.2,322.2,53.3,322,53.3"/>
			<path class="st4" d="M300.7,20.3c0,0.7-0.5,1.2-1.2,1.2s-1.2-0.5-1.2-1.2c0-0.7,0.5-1.2,1.2-1.2
				C300.1,19.1,300.7,19.6,300.7,20.3"/>
			<path class="st7" d="M299.8,19.9c0,0.3-0.2,0.5-0.5,0.5c-0.3,0-0.5-0.2-0.5-0.5c0-0.3,0.2-0.5,0.5-0.5
				C299.6,19.4,299.8,19.6,299.8,19.9"/>
			<path class="st4" d="M306,19.9c0,0.7-0.5,1.2-1.2,1.2c-0.7,0-1.2-0.5-1.2-1.2c0-0.7,0.5-1.2,1.2-1.2
				C305.5,18.7,306,19.2,306,19.9"/>
			<path class="st7" d="M305.1,19.4c0,0.3-0.2,0.5-0.5,0.5c-0.3,0-0.5-0.2-0.5-0.5c0-0.3,0.2-0.5,0.5-0.5
				C304.9,19,305.1,19.2,305.1,19.4"/>
		</g>
	</g>
</g>
<g>
	<path class="st22" d="M65.3,49.9c0-2.2,0.4-4.2,1.3-6.1c0.8-1.9,2.1-3.4,3.7-4.6c1.6-1.1,3.5-1.7,5.7-1.7c1.7,0,3.2,0.3,4.5,1
		c1.3,0.7,2.4,1.6,3.3,2.7c0.9,1.1,1.6,2.5,2,3.9c0.5,1.5,0.7,3.1,0.8,4.7c0,2.2-0.4,4.2-1.3,6.1s-2.1,3.4-3.7,4.5
		c-1.6,1.1-3.5,1.7-5.6,1.7c-2,0-3.8-0.5-5.4-1.5s-2.9-2.5-3.8-4.3C65.8,54.4,65.3,52.3,65.3,49.9z M68.5,49.8c0,1.5,0.2,3,0.7,4.4
		c0.4,1.5,1.2,2.7,2.3,3.8c1.1,1,2.6,1.5,4.4,1.5c1,0,2-0.2,2.9-0.6c0.9-0.4,1.7-1,2.4-1.8c0.7-0.8,1.2-1.8,1.6-3.1
		c0.4-1.2,0.6-2.6,0.6-4.2c0-1.6-0.2-3-0.6-4.2c-0.4-1.2-0.9-2.3-1.6-3.1c-0.7-0.8-1.5-1.4-2.4-1.8C78,40.3,77,40.1,76,40.1
		c-1.4,0-2.6,0.4-3.8,1.1c-1.1,0.8-2,1.9-2.7,3.3C68.8,46,68.5,47.8,68.5,49.8z"/>
</g>
</svg>
